<svg xmlns="http://www.w3.org/2000/svg" version="1.1" xmlns:xlink="http://www.w3.org/1999/xlink" xmlns:svgjs="http://svgjs.dev/svgjs" width="1440" height="560" preserveAspectRatio="none" viewBox="0 0 1440 560">
    <g mask="url(&quot;#SvgjsMask1002&quot;)" fill="none">
        <path d="M480 0C525.74 26.14 517.45 42.95 560 80C597.84 112.95 597.64 115.19 640.77 140C667.64 155.46 670.86 160.53 700 160.53C723.12 160.53 741.91 160.89 745.29 140C754.91 80.63 699.79 38.75 726 0C747.14 -31.25 783 0 840 0C910 0 910 0 980 0C1025.94 0 1071.88 -20.13 1071.88 0C1071.88 29.7 1029.46 53.92 980 99.66C953.77 123.92 920.5 115.1 920.5 140C920.5 173.65 947.76 180.61 980 216.77C1010.18 250.61 1045.33 247.55 1045.33 280C1045.33 314.17 1020.42 327.1 980 350C917.75 385.27 906.28 367.52 840 396.34C825.78 402.52 819 407.7 819 420C819 433.76 823.76 445.83 840 448.47C904.26 458.9 911.19 454.83 980 446.13C1023.8 440.59 1027.08 440.85 1065.22 420C1097.08 402.59 1092.95 395.17 1120 369.6C1167.01 325.17 1204.95 332.95 1213.33 280C1223.13 218.15 1171.99 212.67 1156.36 140C1141.88 72.67 1123.73 39.7 1153.12 0C1175.55 -30.3 1206.56 0 1260 0C1330 0 1330 0 1400 0C1470 0 1505 -35 1540 0C1575 35 1540 70 1540 140C1540 210 1540 210 1540 280C1540 350 1540 350 1540 420C1540 490 1575 525 1540 560C1505 595 1470 560 1400 560C1330 560 1330 560 1260 560C1190 560 1190 560 1120 560C1050 560 1050 560 980 560C910 560 910 560 840 560C770 560 770 560 700 560C659.16 560 654.57 572.64 618.33 560C584.57 548.22 586.27 511.16 560 511.16C539 511.16 549.65 550.98 523.79 560C479.65 575.4 471.89 560 420 560C350 560 350 560 280 560C210 560 210 560 140 560C70 560 36.17 593.83 0 560C-33.83 528.35 -3.38 493.31 0 429.03C0.3 423.31 7.37 424.53 7.37 420C7.37 415.42 0.3 416.6 0 410.82C-3.38 346.6 0 345.41 0 280C0 210 0 210 0 140C0 70 -35 35 0 0C35 -35 70 0 140 0C210 0 210 0 280 0C350 0 350 0 420 0C450 0 455.74 -13.86 480 0" stroke="rgba(115, 115, 115, 1)" stroke-width="2"></path>
        <path d="M1400 109.32C1381.86 109.32 1380.3 121.51 1369.32 140C1329.61 206.85 1289.88 222.67 1298.62 280C1305.22 323.3 1355.14 341.25 1400 341.25C1429.16 341.25 1434.71 315.45 1446.67 280C1468.65 214.82 1483.17 195.92 1467.88 140C1459.84 110.58 1431.14 109.32 1400 109.32" stroke="rgba(115, 115, 115, 1)" stroke-width="2"></path>
        <path d="M280 273.11C271.27 273.11 262.5 274.54 262.5 280C262.5 287.53 271.35 299.09 280 299.09C288.5 299.09 296.8 287.58 296.8 280C296.8 274.59 288.42 273.11 280 273.11" stroke="rgba(115, 115, 115, 1)" stroke-width="2"></path>
        <path d="M560 193.85C529.68 193.85 486.96 239.55 486.96 280C486.96 314.93 528.58 344.62 560 344.62C584.19 344.62 598.18 313.42 598.18 280C598.18 238.04 585.29 193.85 560 193.85" stroke="rgba(115, 115, 115, 1)" stroke-width="2"></path>
        <path d="M420 413.91C416.78 413.91 413 417.47 413 420C413 422.1 416.62 423.18 420 423.18C422.54 423.18 424.83 421.98 424.83 420C424.83 417.34 422.7 413.91 420 413.91" stroke="rgba(115, 115, 115, 1)" stroke-width="2"></path>
        <path d="M0 22.7C22.02 22.7 49.75 76.69 80.37 140C111.97 205.34 98.05 213.18 124.44 280C127.86 288.67 133.28 284.25 140 290.98C203.14 354.25 214.18 348.96 264.15 420C284.18 448.47 253.66 476.02 280 490C331.59 517.38 359.31 479.57 420 502.73C451.04 514.57 463.45 542.15 463.45 560C463.45 570.79 441.73 560 420 560C350 560 350 560 280 560C210 560 210 560 140 560C70 560 45.68 584.32 0 560C-24.32 547.06 -12.52 518.28 0 485.48C14.19 448.28 53.42 452.85 53.42 420C53.42 386.83 14.36 391.06 0 353.44C-12.35 321.06 0 316.72 0 280C0 210 0 210 0 140C0 81.35 -18.17 22.7 0 22.7" stroke="rgba(115, 115, 115, 1)" stroke-width="2"></path>
        <path d="M197.5 140C197.5 89.86 237.26 32.56 280 32.56C324.71 32.56 372.4 90.31 372.4 140C372.4 181.9 325.14 215.74 280 215.74C237.69 215.74 197.5 181.45 197.5 140" stroke="rgba(115, 115, 115, 1)" stroke-width="2"></path>
        <path d="M840 131.76C792.37 122.34 776 45.85 776 0C776 -20.03 808 0 840 0C910 0 910 0 980 0C998.6 0 1017.19 -8.15 1017.19 0C1017.19 12.02 1001.89 24.06 980 40.34C913.29 89.94 894.37 142.51 840 131.76" stroke="rgba(115, 115, 115, 1)" stroke-width="2"></path>
        <path d="M1201.82 140C1182.28 74.69 1171.27 46.88 1190.75 0C1200.36 -23.12 1225.38 0 1260 0C1330 0 1330 0 1400 0C1470 0 1500.48 -30.48 1540 0C1570.48 23.52 1569.58 95.03 1540 108C1499.58 125.72 1462.34 52.25 1400 61.37C1353.02 68.25 1356.54 97.28 1321.37 140C1286.54 182.31 1290.13 231.43 1260 231.43C1230.35 231.43 1216.9 190.4 1201.82 140" stroke="rgba(115, 115, 115, 1)" stroke-width="2"></path>
        <path d="M637.95 280C664.85 240.66 660.99 232.73 700 207.2C762.02 166.62 781.85 130.56 840 147.78C904.74 166.96 945.78 222.73 945.78 280C945.78 322.36 887.93 307.69 840 347.04C802.67 377.69 775.25 382.06 775.25 420C775.25 462.44 795.31 491.91 840 507.8C897.68 528.31 910.96 505.54 980 492.8C1050.96 479.71 1053.11 481.32 1120 456.13C1149.77 444.92 1149.03 440.96 1173.33 420C1219.03 380.57 1211.28 336.6 1260 335.35C1324.61 333.69 1340.92 427.67 1400 414.17C1462.03 400 1458.67 351.36 1502.22 280C1528.67 236.67 1530.21 184.8 1540 184.8C1549.1 184.8 1540 232.4 1540 280C1540 350 1540 350 1540 420C1540 490 1575 525 1540 560C1505 595 1470 560 1400 560C1353.78 560 1346.33 575.86 1307.55 560C1276.33 547.23 1282.48 502.73 1260 502.73C1239.02 502.73 1249.23 548.3 1220.63 560C1179.23 576.94 1170.32 560 1120 560C1050 560 1050 560 980 560C910 560 910 560 840 560C780.77 560 779.5 564.93 721.54 560C709.5 558.98 709.56 555.8 700 548.09C628.79 490.68 630.52 488.24 560 429.77C553.28 424.2 545.52 424.58 545.52 420C545.52 415.65 555.49 418.76 560 411.92C601.7 348.76 594.85 343.02 637.95 280" stroke="rgba(115, 115, 115, 1)" stroke-width="2"></path>
        <path d="M0 117.3C4.26 117.3 13.33 126.67 15.56 140C26.94 208.02 33.57 216.3 27.22 280C25.79 294.33 9.02 296.07 0 296.07C-4.59 296.07 0 288.03 0 280C0 210 0 210 0 140C0 128.65 -3.52 117.3 0 117.3" stroke="rgba(115, 115, 115, 1)" stroke-width="2"></path>
        <path d="M260 140C260 127.84 269.64 113.95 280 113.95C290.84 113.95 302.4 127.95 302.4 140C302.4 150.16 290.94 158.36 280 158.36C269.74 158.36 260 150.05 260 140" stroke="rgba(115, 115, 115, 1)" stroke-width="2"></path>
        <path d="M840 28.82C827.71 28.82 826 10.03 826 0C826 -4.38 833 0 840 0C872.66 0 905.33 -6.88 905.33 0C905.33 7.53 867.38 28.82 840 28.82" stroke="rgba(115, 115, 115, 1)" stroke-width="2"></path>
        <path d="M1247.27 140C1233.74 71.5 1223.19 57.2 1228.39 0C1229.55 -12.8 1244.2 0 1260 0C1330 0 1330 0 1400 0C1470 0 1473.78 -3.78 1540 0C1543.78 0.22 1543.78 7.64 1540 8C1473.78 14.35 1458.52 -15.56 1400 13.42C1325.23 50.44 1335.12 75.4 1273.42 140C1265.12 148.69 1266.59 160 1260 160C1253.51 160 1249.54 151.5 1247.27 140" stroke="rgba(115, 115, 115, 1)" stroke-width="2"></path>
        <path d="M677.73 280C683.73 264.17 684.05 257.31 700 253.87C765.18 239.81 776.34 235.1 840 245C860.34 248.16 868 264.84 868 280C868 291.21 851.51 285.95 840 297.75C783.26 355.95 782.21 356.3 731.5 420C712.21 444.24 720.28 473.62 700 473.62C673.03 473.62 641.03 455.05 637 420C629.9 358.24 652.23 347.23 677.73 280" stroke="rgba(115, 115, 115, 1)" stroke-width="2"></path>
        <path d="M99.47 420C121.6 391.18 117.09 359.61 140 359.61C166.41 359.61 189.71 382.58 198.11 420C212.21 482.78 207.01 506.97 185 560C177.96 576.97 162.5 560 140 560C70 560 62 568 0 560C-8 558.97 -5.12 549.15 0 541.94C44.61 479.15 51.6 482.35 99.47 420" stroke="rgba(115, 115, 115, 1)" stroke-width="2"></path>
        <path d="M1256.67 420C1256.67 418.38 1258.12 416.74 1260 416.74C1262.7 416.74 1265.83 418.39 1265.83 420C1265.83 421.61 1262.7 423.18 1260 423.18C1258.12 423.18 1256.67 421.6 1256.67 420" stroke="rgba(115, 115, 115, 1)" stroke-width="2"></path>
        <path d="M870 560C870 554.82 925.03 549.9 980 539.47C1050.03 526.19 1056.46 505.56 1120 512.58C1149.43 515.83 1165.94 546.02 1165.94 560C1165.94 569.73 1142.97 560 1120 560C1050 560 1050 560 980 560C925 560 870 565.09 870 560" stroke="rgba(115, 115, 115, 1)" stroke-width="2"></path>
        <path d="M1373.58 560C1373.58 546.13 1384.36 517.58 1400 517.58C1418.78 517.58 1442.42 547.58 1442.42 560C1442.42 568.79 1421.21 560 1400 560C1386.79 560 1373.58 567.34 1373.58 560" stroke="rgba(115, 115, 115, 1)" stroke-width="2"></path>
    </g>
    <defs>
        <mask id="SvgjsMask1002">
            <rect width="1440" height="560" fill="#ffffff"></rect>
        </mask>
    </defs>
</svg>