<svg xmlns="http://www.w3.org/2000/svg" version="1.1" xmlns:xlink="http://www.w3.org/1999/xlink" xmlns:svgjs="http://svgjs.dev/svgjs" width="120" height="184" preserveAspectRatio="none" viewBox="0 0 120 184"><g mask="url(&quot;#SvgjsMask1398&quot;)" fill="none"><use xlink:href="#SvgjsPath1399" x="30" y="30" stroke="rgba(203, 203, 203, 0.76)"></use><use xlink:href="#SvgjsPath1400" x="30" y="90" stroke="rgba(203, 203, 203, 0.76)" stroke-width="3"></use><use xlink:href="#SvgjsPath1401" x="30" y="150" stroke="rgba(203, 203, 203, 0.76)"></use><use xlink:href="#SvgjsPath1402" x="30" y="210" stroke="rgba(203, 203, 203, 0.76)"></use><use xlink:href="#SvgjsPath1403" x="90" y="30" stroke="rgba(203, 203, 203, 0.76)"></use><use xlink:href="#SvgjsPath1403" x="90" y="90" stroke="rgba(203, 203, 203, 0.76)"></use><use xlink:href="#SvgjsPath1402" x="90" y="150" stroke="rgba(203, 203, 203, 0.76)"></use><use xlink:href="#SvgjsPath1402" x="90" y="210" stroke="rgba(203, 203, 203, 0.76)"></use></g><defs><mask id="SvgjsMask1398"><rect width="120" height="184" fill="#ffffff"></rect></mask><path d="M-1 0 a1 1 0 1 0 2 0 a1 1 0 1 0 -2 0z"></path><path d="M-3 0 a3 3 0 1 0 6 0 a3 3 0 1 0 -6 0z" id="SvgjsPath1399"></path><path d="M-5 0 a5 5 0 1 0 10 0 a5 5 0 1 0 -10 0z" id="SvgjsPath1402"></path><path d="M2 -2 L-2 2z" id="SvgjsPath1401"></path><path d="M6 -6 L-6 6z" id="SvgjsPath1403"></path><path d="M30 -30 L-30 30z" id="SvgjsPath1400"></path></defs></svg>