<svg width="369" height="324" viewBox="0 0 369 324" fill="none" xmlns="http://www.w3.org/2000/svg">
<path d="M244.333 44.875H138.667C124.098 44.875 112.25 56.4986 112.25 70.7917V252.208C112.25 266.501 124.098 278.125 138.667 278.125H244.333C258.902 278.125 270.75 266.501 270.75 252.208V70.7917C270.75 56.4986 258.902 44.875 244.333 44.875ZM59.4165 96.7083V226.292C59.4165 240.585 71.2644 252.208 85.8332 252.208V70.7917C71.2644 70.7917 59.4165 82.4153 59.4165 96.7083ZM297.166 70.7917V252.208C311.735 252.208 323.583 240.585 323.583 226.292V96.7083C323.583 82.4153 311.735 70.7917 297.166 70.7917Z" fill="#3490DC"/>
</svg>
