<svg width="223" height="48" viewBox="0 0 223 48" fill="none" xmlns="http://www.w3.org/2000/svg">
<path d="M49.12 17.428H59.34C61.244 17.428 62.7653 17.904 63.904 18.856C65.0613 19.7893 65.64 21.1333 65.64 22.888C65.64 23.672 65.4627 24.4093 65.108 25.1C64.772 25.7907 64.2773 26.3507 63.624 26.78C64.5387 27.1907 65.2013 27.732 65.612 28.404C66.0413 29.076 66.256 29.9533 66.256 31.036C66.256 32.2493 65.9667 33.3133 65.388 34.228C64.8093 35.124 64.0253 35.8147 63.036 36.3C62.0653 36.7667 60.9827 37 59.788 37H49.12V17.428ZM57.828 25.016C58.4627 25.016 58.9387 24.876 59.256 24.596C59.592 24.316 59.76 23.868 59.76 23.252C59.76 22.6173 59.6013 22.1787 59.284 21.936C58.9667 21.6747 58.472 21.544 57.8 21.544H54.916V25.016H57.828ZM58.164 32.884C58.9293 32.884 59.4893 32.744 59.844 32.464C60.1987 32.184 60.376 31.6987 60.376 31.008C60.376 30.336 60.1893 29.8413 59.816 29.524C59.4613 29.2067 58.892 29.048 58.108 29.048H54.916V32.884H58.164ZM77.2456 37.42C75.2669 37.42 73.4656 36.9907 71.8416 36.132C70.2362 35.2733 68.9669 34.0787 68.0336 32.548C67.1189 30.9987 66.6616 29.2253 66.6616 27.228C66.6616 25.2307 67.1189 23.4573 68.0336 21.908C68.9669 20.3587 70.2362 19.1547 71.8416 18.296C73.4656 17.4373 75.2669 17.008 77.2456 17.008C79.2242 17.008 81.0069 17.4373 82.5936 18.296C84.1989 19.1547 85.4589 20.3587 86.3736 21.908C87.3069 23.4573 87.7736 25.2307 87.7736 27.228C87.7736 29.2253 87.3069 30.9987 86.3736 32.548C85.4589 34.0787 84.1989 35.2733 82.5936 36.132C81.0069 36.9907 79.2242 37.42 77.2456 37.42ZM77.2456 31.988C78.1042 31.988 78.8789 31.8013 79.5696 31.428C80.2789 31.036 80.8389 30.4853 81.2496 29.776C81.6602 29.048 81.8656 28.1987 81.8656 27.228C81.8656 25.7907 81.4269 24.6427 80.5496 23.784C79.6722 22.9253 78.5709 22.496 77.2456 22.496C75.9016 22.496 74.7816 22.9253 73.8856 23.784C73.0082 24.6427 72.5696 25.7907 72.5696 27.228C72.5696 28.1987 72.7749 29.048 73.1856 29.776C73.5962 30.4853 74.1562 31.036 74.8656 31.428C75.5749 31.8013 76.3682 31.988 77.2456 31.988ZM99.3393 37.42C97.3606 37.42 95.5593 36.9907 93.9353 36.132C92.33 35.2733 91.0606 34.0787 90.1273 32.548C89.2126 30.9987 88.7553 29.2253 88.7553 27.228C88.7553 25.2307 89.2126 23.4573 90.1273 21.908C91.0606 20.3587 92.33 19.1547 93.9353 18.296C95.5593 17.4373 97.3606 17.008 99.3393 17.008C101.318 17.008 103.101 17.4373 104.687 18.296C106.293 19.1547 107.553 20.3587 108.467 21.908C109.401 23.4573 109.867 25.2307 109.867 27.228C109.867 29.2253 109.401 30.9987 108.467 32.548C107.553 34.0787 106.293 35.2733 104.687 36.132C103.101 36.9907 101.318 37.42 99.3393 37.42ZM99.3393 31.988C100.198 31.988 100.973 31.8013 101.663 31.428C102.373 31.036 102.933 30.4853 103.343 29.776C103.754 29.048 103.959 28.1987 103.959 27.228C103.959 25.7907 103.521 24.6427 102.643 23.784C101.766 22.9253 100.665 22.496 99.3393 22.496C97.9953 22.496 96.8753 22.9253 95.9793 23.784C95.102 24.6427 94.6633 25.7907 94.6633 27.228C94.6633 28.1987 94.8686 29.048 95.2793 29.776C95.69 30.4853 96.25 31.036 96.9593 31.428C97.6686 31.8013 98.462 31.988 99.3393 31.988ZM117.135 37.42C115.884 37.42 114.624 37.2893 113.355 37.028C112.086 36.7853 111.059 36.4587 110.275 36.048V30.924C111.302 31.484 112.375 31.904 113.495 32.184C114.634 32.464 115.698 32.604 116.687 32.604C118.124 32.604 118.843 32.2213 118.843 31.456C118.843 31.1387 118.731 30.868 118.507 30.644C118.302 30.4013 117.984 30.1773 117.555 29.972C117.126 29.748 116.444 29.4307 115.511 29.02C113.7 28.236 112.384 27.3773 111.563 26.444C110.76 25.5107 110.359 24.3533 110.359 22.972C110.359 21.8147 110.676 20.788 111.311 19.892C111.964 18.9773 112.87 18.268 114.027 17.764C115.184 17.26 116.519 17.008 118.031 17.008C119.263 17.008 120.355 17.1107 121.307 17.316C122.259 17.5027 123.183 17.8107 124.079 18.24V23.196C122.455 22.3 120.794 21.852 119.095 21.852C118.348 21.852 117.751 21.964 117.303 22.188C116.855 22.3933 116.631 22.7013 116.631 23.112C116.631 23.5227 116.827 23.8587 117.219 24.12C117.63 24.3627 118.395 24.708 119.515 25.156L120.131 25.408C121.456 25.9493 122.474 26.4907 123.183 27.032C123.911 27.5547 124.434 28.1707 124.751 28.88C125.068 29.5707 125.227 30.448 125.227 31.512C125.227 33.36 124.555 34.8067 123.211 35.852C121.867 36.8973 119.842 37.42 117.135 37.42ZM130.486 22.3H125.222V17.428H141.546V22.3H136.282V37H130.486V22.3ZM142.8 17.428H156.996V22.3H148.596V24.988H154.644V29.44H148.596V37H142.8V17.428ZM167.128 37.42C165.075 37.42 163.367 37.0373 162.004 36.272C160.642 35.5067 159.624 34.452 158.952 33.108C158.299 31.764 157.972 30.224 157.972 28.488V17.428H163.768V28.432C163.768 29.6267 164.048 30.532 164.608 31.148C165.187 31.764 166.027 32.072 167.128 32.072C168.23 32.072 169.06 31.764 169.62 31.148C170.199 30.532 170.488 29.6267 170.488 28.432V17.428H176.284V28.488C176.284 30.224 175.948 31.764 175.276 33.108C174.623 34.452 173.615 35.5067 172.252 36.272C170.89 37.0373 169.182 37.42 167.128 37.42ZM178.374 17.428H187.474C189.826 17.428 191.683 18.0253 193.046 19.22C194.409 20.396 195.09 22.104 195.09 24.344C195.09 25.8 194.782 27.0413 194.166 28.068C193.569 29.0947 192.71 29.8787 191.59 30.42L194.866 37H188.93L186.074 31.26H184.17V37H178.374V17.428ZM186.326 26.668C187.222 26.668 187.913 26.5 188.398 26.164C188.902 25.8093 189.154 25.2027 189.154 24.344C189.154 23.4853 188.902 22.888 188.398 22.552C187.913 22.1973 187.222 22.02 186.326 22.02H184.17V26.668H186.326ZM201.524 29.552L194.384 17.428H200.572L204.436 24.176L208.552 17.428H214.712L207.32 29.552V37H201.524V29.552Z" fill="#484848"/>
<path d="M23.1665 32.9354V37.7729C23.1665 41.8042 21.5165 43.4167 17.3915 43.4167H12.4415C8.3165 43.4167 6.6665 41.8042 6.6665 37.7729V32.9354C6.6665 28.9042 8.3165 27.2917 12.4415 27.2917H17.3915C21.5165 27.2917 23.1665 28.9042 23.1665 32.9354Z" fill="#484848"/>
<path d="M33.2133 7.58331H18.62C13.0283 7.58331 8.5 12.0087 8.5 17.4733V22.8125C8.5 23.7979 9.325 24.6041 10.3333 24.6041H18.5833C22.635 24.6041 25.9167 27.8112 25.9167 31.7708V39.8333C25.9167 40.8187 26.7417 41.625 27.75 41.625H33.2133C39.5383 41.625 43.3333 37.9341 43.3333 31.735V17.4733C43.3333 12.0087 38.805 7.58331 33.2133 7.58331ZM37.3933 21.8987C37.3933 22.6333 36.77 23.2425 36.0183 23.2425C35.2667 23.2425 34.6433 22.6333 34.6433 21.8987V17.9571L27.805 24.6579C27.53 24.9266 27.1817 25.0521 26.8333 25.0521C26.485 25.0521 26.1367 24.9266 25.8617 24.6579C25.33 24.1383 25.33 23.2783 25.8617 22.7587L32.7 16.04H28.6667C27.8967 16.04 27.2917 15.4487 27.2917 14.6962C27.2917 13.9616 27.8967 13.3525 28.6667 13.3525H36.0183C36.1833 13.3525 36.3483 13.4062 36.495 13.46C36.55 13.4779 36.5867 13.4958 36.6233 13.5137C36.7333 13.5675 36.825 13.6212 36.9167 13.7108C36.9533 13.7287 36.99 13.7646 37.0267 13.8004C37.1183 13.9079 37.1917 14.0154 37.265 14.1408C37.265 14.1587 37.2833 14.1766 37.2833 14.1946C37.3567 14.3379 37.375 14.4991 37.375 14.6604C37.3933 14.6783 37.3933 14.6783 37.3933 14.6962V21.8987Z" fill="#1769FF"/>
</svg>
