<svg width="189" height="32" viewBox="0 0 189 32" fill="none" xmlns="http://www.w3.org/2000/svg">
<g clip-path="url(#clip0_79_79)">
<path d="M33.68 13.117H39.885C41.041 13.117 41.9647 13.406 42.656 13.984C43.3587 14.5507 43.71 15.3667 43.71 16.432C43.71 16.908 43.6023 17.3557 43.387 17.775C43.183 18.1943 42.8827 18.5343 42.486 18.795C43.0413 19.0443 43.4437 19.373 43.693 19.781C43.9537 20.189 44.084 20.7217 44.084 21.379C44.084 22.1157 43.9083 22.7617 43.557 23.317C43.2057 23.861 42.7297 24.2803 42.129 24.575C41.5397 24.8583 40.8823 25 40.157 25H33.68V13.117ZM38.967 17.724C39.3523 17.724 39.6413 17.639 39.834 17.469C40.038 17.299 40.14 17.027 40.14 16.653C40.14 16.2677 40.0437 16.0013 39.851 15.854C39.6583 15.6953 39.358 15.616 38.95 15.616H37.199V17.724H38.967ZM39.171 22.501C39.6357 22.501 39.9757 22.416 40.191 22.246C40.4063 22.076 40.514 21.7813 40.514 21.362C40.514 20.954 40.4007 20.6537 40.174 20.461C39.9587 20.2683 39.613 20.172 39.137 20.172H37.199V22.501H39.171ZM48.4169 25.255C47.2835 25.255 46.4335 24.9377 45.8669 24.303C45.3002 23.6683 45.0169 22.8297 45.0169 21.787V16.84H48.4169V21.379C48.4169 22.2063 48.7795 22.62 49.5049 22.62C49.8335 22.62 50.1282 22.5407 50.3889 22.382C50.6495 22.2233 50.8592 21.9967 51.0179 21.702V16.84H54.4349V25H51.1369V24.218C50.7969 24.558 50.3889 24.8187 49.9129 25C49.4369 25.17 48.9382 25.255 48.4169 25.255ZM57.5783 15.922C57.0683 15.922 56.6433 15.7577 56.3033 15.429C55.9633 15.1003 55.7933 14.681 55.7933 14.171C55.7933 13.6723 55.9633 13.2587 56.3033 12.93C56.6433 12.59 57.0683 12.42 57.5783 12.42C58.0769 12.42 58.4963 12.59 58.8363 12.93C59.1876 13.27 59.3633 13.6837 59.3633 14.171C59.3633 14.6697 59.1876 15.089 58.8363 15.429C58.4963 15.7577 58.0769 15.922 57.5783 15.922ZM55.8783 16.84H59.2783V25H55.8783V16.84ZM60.7239 12.437H64.1239V25H60.7239V12.437ZM69.4836 25.255C68.6223 25.255 67.8629 25.0793 67.2056 24.728C66.5483 24.3653 66.0383 23.861 65.6756 23.215C65.3243 22.5577 65.1486 21.7983 65.1486 20.937C65.1486 20.087 65.3243 19.3333 65.6756 18.676C66.0383 18.0073 66.5483 17.4917 67.2056 17.129C67.8629 16.7663 68.6223 16.585 69.4836 16.585C70.0049 16.585 70.4923 16.6643 70.9456 16.823C71.4103 16.9703 71.7956 17.1743 72.1016 17.435V12.437H75.5016V25H72.2206V24.252C71.8806 24.5807 71.4726 24.83 70.9966 25C70.5319 25.17 70.0276 25.255 69.4836 25.255ZM70.4016 22.62C70.7869 22.62 71.1269 22.5293 71.4216 22.348C71.7276 22.1667 71.9543 21.9173 72.1016 21.6V20.257C71.9543 19.9397 71.7276 19.6903 71.4216 19.509C71.1269 19.3277 70.7869 19.237 70.4016 19.237C69.8689 19.237 69.4439 19.39 69.1266 19.696C68.8206 19.9907 68.6676 20.4043 68.6676 20.937C68.6676 21.4697 68.8206 21.8833 69.1266 22.178C69.4439 22.4727 69.8689 22.62 70.4016 22.62Z" fill="#33475B"/>
<path d="M91.6133 16.6494C91.0654 16.6494 90.6836 16.3893 90.4678 15.8691C89.6709 15.8691 88.7965 16.0628 87.8447 16.4502C87.2526 16.6937 86.8542 16.9178 86.6494 17.1226C86.4447 17.3273 86.334 17.4878 86.3174 17.604C86.3063 17.7202 86.3644 17.8198 86.4917 17.9028C86.619 17.9803 86.7961 18.055 87.0229 18.127C87.2554 18.1989 87.5238 18.2708 87.8281 18.3428C89.4219 18.7135 90.4318 18.9709 90.8579 19.1147C91.7046 19.397 92.3382 19.7069 92.7588 20.0444C93.1572 20.382 93.3564 20.8413 93.3564 21.4224C93.3564 21.9038 93.207 22.3105 92.9082 22.6426C92.6149 22.9746 92.2248 23.2707 91.7378 23.5308C91.2508 23.7909 90.7057 24.0233 90.1025 24.228C89.5049 24.4272 88.8713 24.5988 88.2017 24.7427C87.5376 24.8866 86.8818 25.0055 86.2344 25.0996C84.9671 25.2767 83.8853 25.3652 82.9888 25.3652C81.3563 25.3652 80.0973 25.1688 79.2119 24.7759C78.8799 24.6265 78.6087 24.2529 78.3984 23.6553C78.2324 23.1628 78.1494 22.7588 78.1494 22.4434C78.1494 22.1224 78.1771 21.9453 78.2324 21.9121C78.2878 21.8789 78.4012 21.8789 78.5728 21.9121C78.7443 21.9398 78.9684 21.9896 79.2451 22.0615L80.2412 22.3271C81.7852 22.7145 83.4176 22.9082 85.1387 22.9082C86.4059 22.9082 87.4795 22.7948 88.3594 22.5679C88.8796 22.4295 89.1562 22.2746 89.1895 22.103C89.2116 21.9536 88.8021 21.7682 87.9609 21.5469C87.5791 21.4417 87.1364 21.3311 86.6328 21.2148C84.1924 20.6227 82.7204 20.2409 82.2168 20.0693C81.7132 19.8978 81.384 19.7456 81.229 19.6128C81.0796 19.48 80.9551 19.3333 80.8555 19.1729C80.6729 18.8574 80.5815 18.5586 80.5815 18.2764C80.5815 17.9886 80.5954 17.7673 80.623 17.6123C80.6562 17.4574 80.7005 17.3135 80.7559 17.1807C80.8721 16.9095 81.0187 16.7241 81.1958 16.6245C82.618 15.8276 84.707 15.1276 87.4629 14.5244C89.9144 13.9821 91.9315 13.7109 93.5142 13.7109C93.8351 13.7109 94.0758 13.7663 94.2363 13.877C94.513 14.0817 94.6348 14.3003 94.6016 14.5327C94.5684 14.7651 94.4964 14.981 94.3857 15.1802C94.2806 15.3739 94.1478 15.5509 93.9873 15.7114C93.8268 15.8664 93.647 16.0047 93.4478 16.1265C93.2541 16.2427 93.0521 16.3395 92.8418 16.417C92.4212 16.5719 92.0117 16.6494 91.6133 16.6494ZM103.766 19.8867C103.766 20.1855 104.02 20.335 104.529 20.335C104.906 20.335 105.398 20.1523 106.007 19.7871L106.671 19.4219C106.876 19.3057 107.053 19.2476 107.202 19.2476C107.357 19.2476 107.479 19.2946 107.567 19.3887C107.656 19.4827 107.7 19.6128 107.7 19.7788C107.7 19.9448 107.645 20.1385 107.534 20.3599C107.424 20.5757 107.271 20.8053 107.078 21.0488C106.884 21.2868 106.657 21.5247 106.397 21.7627C106.137 21.9951 105.857 22.2054 105.559 22.3936C104.895 22.8086 104.278 23.0161 103.708 23.0161C103.104 23.0161 102.623 22.9137 102.263 22.709C102.153 22.6426 102.045 22.5734 101.939 22.5015C101.347 23.1766 100.49 23.7964 99.3662 24.3608C98.1709 24.9585 97.1278 25.2573 96.2368 25.2573C95.3016 25.2573 94.5628 24.8893 94.0205 24.1533C93.5833 23.5557 93.3647 22.9497 93.3647 22.3354C93.3647 21.45 93.8379 20.6061 94.7842 19.8037C95.4814 19.2171 96.1538 18.7716 96.8013 18.4673C97.4543 18.1629 98.0436 17.9277 98.5693 17.7617C99.6816 17.4131 100.683 17.2388 101.574 17.2388C101.973 17.2388 102.327 17.3162 102.637 17.4712C102.952 17.6206 103.185 17.7728 103.334 17.9277C103.688 18.2764 103.865 18.7218 103.865 19.2642C103.865 19.4246 103.849 19.5492 103.815 19.6377C103.782 19.7262 103.766 19.8092 103.766 19.8867ZM96.9756 21.4556L96.9673 21.4805V21.4888C96.9673 21.7267 97.0199 21.8817 97.125 21.9536C97.3796 22.1086 97.6479 22.1501 97.9302 22.0781C98.2124 22.0007 98.4808 21.9066 98.7354 21.7959C99.3662 21.5247 99.9362 21.1816 100.445 20.7666C100.357 20.5895 100.312 20.4069 100.312 20.2188C100.312 19.8203 100.487 19.4219 100.835 19.0234C100.393 19.0234 99.7951 19.231 99.0425 19.646C98.2124 20.1053 97.5898 20.5785 97.1748 21.0654C97.042 21.2314 96.9756 21.3615 96.9756 21.4556ZM118.068 19.646C118.068 19.9061 117.728 20.4097 117.047 21.1567C116.35 21.9149 115.666 22.5319 114.997 23.0078C113.702 23.9707 112.266 24.6292 110.688 24.9834C110.091 25.1217 109.524 25.1909 108.987 25.1909C108.456 25.1909 108.013 25.1439 107.659 25.0498C107.31 24.9613 106.995 24.8423 106.712 24.6929C106.436 24.5379 106.195 24.3608 105.99 24.1616C105.785 23.9624 105.614 23.7521 105.476 23.5308C105.204 23.0991 105.069 22.7007 105.069 22.3354C105.069 21.9702 105.11 21.6493 105.193 21.3726C105.271 21.0959 105.382 20.833 105.525 20.584C106.029 19.6764 107.042 18.874 108.563 18.1768C109.764 17.6178 110.91 17.2554 112 17.0894C112.47 17.0174 112.805 16.9814 113.004 16.9814C113.204 16.9814 113.37 17.0036 113.502 17.0479C113.641 17.0866 113.76 17.1419 113.859 17.2139C114.081 17.3743 114.191 17.5929 114.191 17.8696C114.191 18.1463 114.119 18.4092 113.976 18.6582C113.832 18.9017 113.649 19.1064 113.428 19.2725C112.996 19.5934 112.515 19.7539 111.983 19.7539C111.258 19.7539 110.661 19.6598 110.19 19.4717C109.864 19.5879 109.587 19.8009 109.36 20.1108C109.172 20.3654 109.078 20.5951 109.078 20.7998C109.078 20.999 109.122 21.1955 109.211 21.3892C109.305 21.5773 109.435 21.7461 109.601 21.8955C109.966 22.2165 110.406 22.377 110.921 22.377C112.116 22.377 113.508 21.7433 115.096 20.4761L115.852 19.8867C116.648 19.278 117.216 18.9736 117.553 18.9736C117.896 18.9736 118.068 19.1978 118.068 19.646ZM123.347 15.4043C123.187 15.5371 123.012 15.6478 122.824 15.7363C122.636 15.8193 122.426 15.8608 122.193 15.8608C121.961 15.8608 121.737 15.8221 121.521 15.7446C121.305 15.6672 121.117 15.5592 120.957 15.4209C120.608 15.1221 120.434 14.7402 120.434 14.2754C120.434 13.5615 121.031 13.0303 122.227 12.6816C122.631 12.5599 122.963 12.499 123.223 12.499C123.483 12.499 123.676 12.5295 123.804 12.5903C123.937 12.6457 124.044 12.7204 124.127 12.8145C124.293 13.0026 124.376 13.1963 124.376 13.3955C124.376 13.5892 124.352 13.7663 124.302 13.9268C124.257 14.0872 124.191 14.2533 124.103 14.4248C124.014 14.5964 123.906 14.7679 123.779 14.9395C123.652 15.111 123.508 15.266 123.347 15.4043ZM121.255 24.5435C120.835 24.7593 120.425 24.9308 120.027 25.0581C119.628 25.1909 119.236 25.2573 118.848 25.2573C118.466 25.2573 118.068 25.166 117.653 24.9834C117.243 24.7952 116.878 24.5462 116.557 24.2363C115.843 23.5446 115.486 22.7754 115.486 21.9287C115.486 21.1484 115.719 20.3571 116.184 19.5547C116.61 18.8298 117.152 18.221 117.811 17.7285C118.469 17.236 119.081 16.9897 119.645 16.9897C120.453 16.9897 120.885 17.2166 120.94 17.6704C120.957 17.8088 120.965 17.9692 120.965 18.1519C120.965 18.3345 120.921 18.5448 120.832 18.7827C120.749 19.0151 120.638 19.2503 120.5 19.4883C120.367 19.7207 120.218 19.9504 120.052 20.1772C119.891 20.3986 119.736 20.6006 119.587 20.7832C119.299 21.1318 119.069 21.3836 118.898 21.5386C118.898 21.7267 119.039 21.9204 119.321 22.1196C119.587 22.3078 119.811 22.4019 119.994 22.4019C120.182 22.4019 120.4 22.3576 120.649 22.269C120.904 22.1805 121.164 22.0615 121.43 21.9121C121.701 21.7627 121.975 21.5911 122.251 21.3975C122.534 21.2038 122.81 21.0046 123.082 20.7998L124.601 19.6128C125.204 19.1756 125.694 18.957 126.07 18.957C126.219 18.957 126.333 19.0124 126.41 19.123C126.493 19.2282 126.535 19.3527 126.535 19.4966C126.535 19.6405 126.463 19.8397 126.319 20.0942C126.175 20.3433 125.976 20.62 125.721 20.9243C125.472 21.2287 125.179 21.5469 124.841 21.8789C124.504 22.2109 124.139 22.5374 123.746 22.8584C123.353 23.1794 122.943 23.4865 122.517 23.7798C122.097 24.0675 121.676 24.3221 121.255 24.5435ZM139.036 18.7661C139.213 18.7661 139.301 18.9155 139.301 19.2144C139.301 19.729 138.942 20.3958 138.222 21.2148L137.749 21.6963C136.316 23.1296 134.965 24.0841 133.698 24.5601C132.912 24.8534 132.348 24.8395 132.005 24.5186C131.723 24.2474 131.499 23.8102 131.333 23.207L131.133 22.4849L129.365 23.5723L128.344 24.1533C127.127 24.8174 126.214 25.1494 125.605 25.1494C124.825 25.1494 124.174 24.8478 123.654 24.2446C123.156 23.6746 122.907 23.0133 122.907 22.2607C122.907 21.5192 123.203 20.8579 123.795 20.2769C124.642 19.4468 125.979 18.6859 127.805 17.9941C129.531 17.3467 130.926 17.0229 131.988 17.0229C132.348 17.0229 132.528 17.2 132.528 17.5542C132.528 17.7977 132.481 17.9803 132.387 18.1021C132.293 18.2238 132.099 18.3483 131.806 18.4756L130.76 18.9238C129.21 19.5713 128.076 20.2437 127.356 20.9409C127.152 21.1346 127.049 21.3228 127.049 21.5054C127.049 21.688 127.196 21.7793 127.489 21.7793C127.777 21.7793 128.447 21.4694 129.498 20.8496L130.187 20.4429C131.255 19.8009 132.149 19.48 132.868 19.48C133.477 19.48 133.881 19.7484 134.08 20.2852C134.13 20.429 134.177 20.5757 134.221 20.7251C134.265 20.869 134.31 20.999 134.354 21.1152C134.454 21.3864 134.542 21.522 134.62 21.522C134.703 21.522 134.819 21.4832 134.968 21.4058C135.118 21.3228 135.281 21.2204 135.458 21.0986C135.641 20.9714 135.829 20.833 136.022 20.6836L137.027 19.8784C137.918 19.1369 138.587 18.7661 139.036 18.7661ZM147.129 19.1396C147.483 19.1396 147.66 19.2863 147.66 19.5796C147.66 19.9393 147.444 20.3682 147.013 20.8662C146.299 21.6963 145.458 22.5042 144.489 23.29C142.912 24.5518 141.504 25.1826 140.264 25.1826C139.373 25.1826 138.643 24.7952 138.073 24.0205C137.481 23.2126 137.185 22.1279 137.185 20.7666C137.185 18.9792 138.056 17.0036 139.799 14.8398C140.906 13.4619 141.949 12.5267 142.929 12.0342C143.233 11.8792 143.465 11.8018 143.626 11.8018C143.792 11.8018 143.941 11.8294 144.074 11.8848C144.213 11.9346 144.34 12.0065 144.456 12.1006C144.727 12.3275 144.863 12.6014 144.863 12.9224C144.863 13.2433 144.774 13.6252 144.597 14.0679C144.42 14.505 144.163 14.9727 143.825 15.4707C143.111 16.5277 142.146 17.5404 140.928 18.5088C140.613 19.112 140.455 19.8369 140.455 20.6836C140.455 21.0654 140.577 21.4251 140.82 21.7627C141.069 22.1003 141.343 22.269 141.642 22.269C142.052 22.269 142.835 21.8457 143.991 20.999L145.469 19.8618C146.072 19.3804 146.625 19.1396 147.129 19.1396Z" fill="#3369E7"/>
<path d="M150.765 13.117H156.001C157.384 13.117 158.489 13.4797 159.316 14.205C160.143 14.9303 160.557 15.9447 160.557 17.248C160.557 18.5853 160.143 19.6223 159.316 20.359C158.5 21.0843 157.395 21.447 156.001 21.447H153.774V25H150.765V13.117ZM155.525 18.914C156.126 18.914 156.596 18.7893 156.936 18.54C157.287 18.2907 157.463 17.86 157.463 17.248C157.463 16.636 157.293 16.2167 156.953 15.99C156.613 15.7633 156.137 15.65 155.525 15.65H153.774V18.914H155.525ZM165.335 25.255C164.326 25.255 163.442 25.0737 162.683 24.711C161.924 24.337 161.334 23.827 160.915 23.181C160.507 22.5237 160.303 21.77 160.303 20.92C160.303 20.07 160.507 19.322 160.915 18.676C161.334 18.0187 161.924 17.5087 162.683 17.146C163.442 16.772 164.326 16.585 165.335 16.585C166.344 16.585 167.228 16.772 167.987 17.146C168.746 17.5087 169.33 18.0187 169.738 18.676C170.157 19.322 170.367 20.07 170.367 20.92C170.367 21.77 170.157 22.5237 169.738 23.181C169.33 23.827 168.746 24.337 167.987 24.711C167.228 25.0737 166.344 25.255 165.335 25.255ZM165.335 22.926C165.936 22.926 166.412 22.7503 166.763 22.399C167.126 22.0363 167.307 21.5433 167.307 20.92C167.307 20.2967 167.126 19.8093 166.763 19.458C166.412 19.0953 165.936 18.914 165.335 18.914C164.734 18.914 164.253 19.0953 163.89 19.458C163.539 19.8093 163.363 20.2967 163.363 20.92C163.363 21.5433 163.539 22.0363 163.89 22.399C164.253 22.7503 164.734 22.926 165.335 22.926ZM174.638 25.255C173.98 25.255 173.295 25.187 172.581 25.051C171.867 24.9263 171.3 24.745 170.881 24.507V22.314C171.345 22.586 171.901 22.8127 172.547 22.994C173.204 23.164 173.805 23.249 174.349 23.249C174.745 23.249 175.034 23.2207 175.216 23.164C175.397 23.1073 175.488 22.994 175.488 22.824C175.488 22.688 175.425 22.5803 175.301 22.501C175.187 22.4103 174.972 22.3197 174.655 22.229C174.349 22.127 173.992 22.0193 173.584 21.906C172.892 21.702 172.348 21.4923 171.952 21.277C171.555 21.0617 171.26 20.7897 171.068 20.461C170.875 20.1323 170.779 19.7187 170.779 19.22C170.779 18.336 171.124 17.6787 171.816 17.248C172.518 16.806 173.476 16.585 174.689 16.585C175.278 16.585 175.896 16.6473 176.542 16.772C177.199 16.8967 177.692 17.061 178.021 17.265V19.424C177.681 19.1973 177.227 19.0103 176.661 18.863C176.105 18.7157 175.584 18.642 175.097 18.642C174.711 18.642 174.411 18.6817 174.196 18.761C173.98 18.829 173.873 18.9537 173.873 19.135C173.873 19.305 173.98 19.4353 174.196 19.526C174.411 19.6167 174.796 19.73 175.352 19.866C175.714 19.9567 175.867 19.9963 175.811 19.985C176.536 20.1777 177.097 20.393 177.494 20.631C177.89 20.869 178.168 21.1523 178.327 21.481C178.497 21.7983 178.582 22.2063 178.582 22.705C178.582 23.487 178.242 24.1103 177.562 24.575C176.893 25.0283 175.918 25.255 174.638 25.255ZM183.055 25.255C182.046 25.255 181.281 24.9773 180.76 24.422C180.25 23.8553 179.995 23.0847 179.995 22.11V18.914H178.839V16.84H179.995V14.392H182.987V16.84H184.857V18.914H182.987V21.702C182.987 22.144 183.066 22.4613 183.225 22.654C183.395 22.8467 183.69 22.943 184.109 22.943C184.483 22.943 184.857 22.841 185.231 22.637V24.864C184.936 25 184.619 25.0963 184.279 25.153C183.95 25.221 183.542 25.255 183.055 25.255Z" fill="#33475B"/>
<path opacity="0.4" d="M21.3125 18.0812H18.3287C15.8812 18.0812 13.8875 16.1012 13.8875 13.64V10.6562C13.8875 10.0925 13.4337 9.625 12.8562 9.625H8.4975C5.32125 9.625 2.75 11.6875 2.75 15.3725V24.5025C2.75 28.1875 5.32125 30.25 8.4975 30.25H16.5962C19.7725 30.25 22.3437 28.1875 22.3437 24.5025V19.1125C22.3437 18.535 21.8762 18.0812 21.3125 18.0812Z" fill="#3369E7"/>
<path d="M24.5022 2.75H21.7935H20.2947H16.4035C13.2959 2.75 10.7797 4.73 10.6697 8.26375C10.7522 8.26375 10.8209 8.25 10.9034 8.25H14.7947H16.2935H19.0022C22.1785 8.25 24.7497 10.3125 24.7497 13.9975V16.7062V20.4325V23.1412C24.7497 23.2237 24.736 23.2925 24.736 23.3612C27.8022 23.265 30.2497 21.23 30.2497 17.6412V14.9325V11.2062V8.4975C30.2497 4.8125 27.6785 2.75 24.5022 2.75Z" fill="#3369E7"/>
<path d="M16.4734 9.83158C16.0471 9.40533 15.3184 9.69408 15.3184 10.2853V13.8878C15.3184 15.4003 16.5971 16.6378 18.1646 16.6378C19.1409 16.6515 20.5021 16.6515 21.6709 16.6515C22.2621 16.6515 22.5646 15.964 22.1521 15.5515C20.6534 14.0528 17.9859 11.3716 16.4734 9.83158Z" fill="#3369E7"/>
</g>
<defs>
<clipPath id="clip0_79_79">
<rect width="189" height="32" rx="10" fill="white"/>
</clipPath>
</defs>
</svg>
