<svg width="150" height="54" viewBox="0 0 150 54" fill="none" xmlns="http://www.w3.org/2000/svg">
<path d="M53.614 20.122C54.3993 20.2993 55.02 20.692 55.476 21.3C55.9447 21.8953 56.179 22.5793 56.179 23.352C56.179 24.492 55.7863 25.385 55.001 26.031C54.2157 26.677 53.1137 27 51.695 27H45.064V13.605H51.486C52.854 13.605 53.9243 13.909 54.697 14.517C55.4823 15.125 55.875 15.98 55.875 17.082C55.875 17.8673 55.666 18.526 55.248 19.058C54.8427 19.5773 54.298 19.932 53.614 20.122ZM48.788 18.925H50.669C51.6063 18.925 52.075 18.5387 52.075 17.766C52.075 16.968 51.6063 16.569 50.669 16.569H48.788V18.925ZM50.954 23.998C51.8913 23.998 52.36 23.6053 52.36 22.82C52.36 22.4147 52.2333 22.1043 51.98 21.889C51.7393 21.6737 51.391 21.566 50.935 21.566H48.788V23.998H50.954ZM68.7171 16.341V27H64.9741V25.48C64.6574 25.9613 64.2204 26.354 63.6631 26.658C63.1057 26.9493 62.4661 27.095 61.7441 27.095C60.5027 27.095 59.5211 26.6897 58.7991 25.879C58.0897 25.0557 57.7351 23.941 57.7351 22.535V16.341H61.4401V22.06C61.4401 22.668 61.5984 23.1493 61.9151 23.504C62.2444 23.846 62.6751 24.017 63.2071 24.017C63.7517 24.017 64.1824 23.846 64.4991 23.504C64.8157 23.1493 64.9741 22.668 64.9741 22.06V16.341H68.7171ZM72.7175 15.353C72.0588 15.353 71.5268 15.1757 71.1215 14.821C70.7288 14.4537 70.5325 13.9977 70.5325 13.453C70.5325 12.8957 70.7288 12.4333 71.1215 12.066C71.5268 11.6987 72.0588 11.515 72.7175 11.515C73.3635 11.515 73.8828 11.6987 74.2755 12.066C74.6808 12.4333 74.8835 12.8957 74.8835 13.453C74.8835 13.9977 74.6808 14.4537 74.2755 14.821C73.8828 15.1757 73.3635 15.353 72.7175 15.353ZM74.5605 16.341V27H70.8365V16.341H74.5605ZM80.4052 12.94V27H76.6812V12.94H80.4052ZM81.9179 21.661C81.9179 20.559 82.1142 19.5963 82.5069 18.773C82.9122 17.9497 83.4632 17.3163 84.1599 16.873C84.8566 16.4297 85.6292 16.208 86.4779 16.208C87.1619 16.208 87.7699 16.3537 88.3019 16.645C88.8466 16.9237 89.2709 17.31 89.5749 17.804V12.94H93.3179V27H89.5749V25.518C89.2836 26.012 88.8719 26.4047 88.3399 26.696C87.8079 26.9873 87.1809 27.133 86.4589 27.133C85.6102 27.133 84.8376 26.9113 84.1409 26.468C83.4569 26.0247 82.9122 25.3913 82.5069 24.568C82.1142 23.732 81.9179 22.763 81.9179 21.661ZM89.5939 21.661C89.5939 20.977 89.4039 20.4387 89.0239 20.046C88.6566 19.6533 88.2006 19.457 87.6559 19.457C87.0986 19.457 86.6362 19.6533 86.2689 20.046C85.9016 20.426 85.7179 20.9643 85.7179 21.661C85.7179 22.345 85.9016 22.8897 86.2689 23.295C86.6362 23.6877 87.0986 23.884 87.6559 23.884C88.2006 23.884 88.6566 23.6877 89.0239 23.295C89.4039 22.9023 89.5939 22.3577 89.5939 21.661Z" fill="#33475B"/>
<path d="M53.6094 33.1055C53.2227 33.1055 52.9531 32.9219 52.8008 32.5547C52.2383 32.5547 51.6211 32.6914 50.9492 32.9648C50.5312 33.1367 50.25 33.2949 50.1055 33.4395C49.9609 33.584 49.8828 33.6973 49.8711 33.7793C49.8633 33.8613 49.9043 33.9316 49.9941 33.9902C50.084 34.0449 50.209 34.0977 50.3691 34.1484C50.5332 34.1992 50.7227 34.25 50.9375 34.3008C52.0625 34.5625 52.7754 34.7441 53.0762 34.8457C53.6738 35.0449 54.1211 35.2637 54.418 35.502C54.6992 35.7402 54.8398 36.0645 54.8398 36.4746C54.8398 36.8145 54.7344 37.1016 54.5234 37.3359C54.3164 37.5703 54.041 37.7793 53.6973 37.9629C53.3535 38.1465 52.9688 38.3105 52.543 38.4551C52.1211 38.5957 51.6738 38.7168 51.2012 38.8184C50.7324 38.9199 50.2695 39.0039 49.8125 39.0703C48.918 39.1953 48.1543 39.2578 47.5215 39.2578C46.3691 39.2578 45.4805 39.1191 44.8555 38.8418C44.6211 38.7363 44.4297 38.4727 44.2812 38.0508C44.1641 37.7031 44.1055 37.418 44.1055 37.1953C44.1055 36.9688 44.125 36.8438 44.1641 36.8203C44.2031 36.7969 44.2832 36.7969 44.4043 36.8203C44.5254 36.8398 44.6836 36.875 44.8789 36.9258L45.582 37.1133C46.6719 37.3867 47.8242 37.5234 49.0391 37.5234C49.9336 37.5234 50.6914 37.4434 51.3125 37.2832C51.6797 37.1855 51.875 37.0762 51.8984 36.9551C51.9141 36.8496 51.625 36.7188 51.0312 36.5625C50.7617 36.4883 50.4492 36.4102 50.0938 36.3281C48.3711 35.9102 47.332 35.6406 46.9766 35.5195C46.6211 35.3984 46.3887 35.291 46.2793 35.1973C46.1738 35.1035 46.0859 35 46.0156 34.8867C45.8867 34.6641 45.8223 34.4531 45.8223 34.2539C45.8223 34.0508 45.832 33.8945 45.8516 33.7852C45.875 33.6758 45.9062 33.5742 45.9453 33.4805C46.0273 33.2891 46.1309 33.1582 46.2559 33.0879C47.2598 32.5254 48.7344 32.0312 50.6797 31.6055C52.4102 31.2227 53.834 31.0312 54.9512 31.0312C55.1777 31.0312 55.3477 31.0703 55.4609 31.1484C55.6562 31.293 55.7422 31.4473 55.7188 31.6113C55.6953 31.7754 55.6445 31.9277 55.5664 32.0684C55.4922 32.2051 55.3984 32.3301 55.2852 32.4434C55.1719 32.5527 55.0449 32.6504 54.9043 32.7363C54.7676 32.8184 54.625 32.8867 54.4766 32.9414C54.1797 33.0508 53.8906 33.1055 53.6094 33.1055ZM62.1875 35.3906C62.1875 35.6016 62.3672 35.707 62.7266 35.707C62.9922 35.707 63.3398 35.5781 63.7695 35.3203L64.2383 35.0625C64.3828 34.9805 64.5078 34.9395 64.6133 34.9395C64.7227 34.9395 64.8086 34.9727 64.8711 35.0391C64.9336 35.1055 64.9648 35.1973 64.9648 35.3145C64.9648 35.4316 64.9258 35.5684 64.8477 35.7246C64.7695 35.877 64.6621 36.0391 64.5254 36.2109C64.3887 36.3789 64.2285 36.5469 64.0449 36.7148C63.8613 36.8789 63.6641 37.0273 63.4531 37.1602C62.9844 37.4531 62.5488 37.5996 62.1465 37.5996C61.7207 37.5996 61.3809 37.5273 61.127 37.3828C61.0488 37.3359 60.9727 37.2871 60.8984 37.2363C60.4805 37.7129 59.875 38.1504 59.082 38.5488C58.2383 38.9707 57.502 39.1816 56.873 39.1816C56.2129 39.1816 55.6914 38.9219 55.3086 38.4023C55 37.9805 54.8457 37.5527 54.8457 37.1191C54.8457 36.4941 55.1797 35.8984 55.8477 35.332C56.3398 34.918 56.8145 34.6035 57.2715 34.3887C57.7324 34.1738 58.1484 34.0078 58.5195 33.8906C59.3047 33.6445 60.0117 33.5215 60.6406 33.5215C60.9219 33.5215 61.1719 33.5762 61.3906 33.6855C61.6133 33.791 61.7773 33.8984 61.8828 34.0078C62.1328 34.2539 62.2578 34.5684 62.2578 34.9512C62.2578 35.0645 62.2461 35.1523 62.2227 35.2148C62.1992 35.2773 62.1875 35.3359 62.1875 35.3906ZM57.3945 36.498L57.3887 36.5156V36.5215C57.3887 36.6895 57.4258 36.7988 57.5 36.8496C57.6797 36.959 57.8691 36.9883 58.0684 36.9375C58.2676 36.8828 58.457 36.8164 58.6367 36.7383C59.082 36.5469 59.4844 36.3047 59.8438 36.0117C59.7812 35.8867 59.75 35.7578 59.75 35.625C59.75 35.3438 59.873 35.0625 60.1191 34.7812C59.8066 34.7812 59.3848 34.9277 58.8535 35.2207C58.2676 35.5449 57.8281 35.8789 57.5352 36.2227C57.4414 36.3398 57.3945 36.4316 57.3945 36.498ZM72.2832 35.2207C72.2832 35.4043 72.043 35.7598 71.5625 36.2871C71.0703 36.8223 70.5879 37.2578 70.1152 37.5938C69.2012 38.2734 68.1875 38.7383 67.0742 38.9883C66.6523 39.0859 66.252 39.1348 65.873 39.1348C65.498 39.1348 65.1855 39.1016 64.9355 39.0352C64.6895 38.9727 64.4668 38.8887 64.2676 38.7832C64.0723 38.6738 63.9023 38.5488 63.7578 38.4082C63.6133 38.2676 63.4922 38.1191 63.3945 37.9629C63.2031 37.6582 63.1074 37.377 63.1074 37.1191C63.1074 36.8613 63.1367 36.6348 63.1953 36.4395C63.25 36.2441 63.3281 36.0586 63.4297 35.8828C63.7852 35.2422 64.5 34.6758 65.5742 34.1836C66.4219 33.7891 67.2305 33.5332 68 33.416C68.332 33.3652 68.5684 33.3398 68.709 33.3398C68.8496 33.3398 68.9668 33.3555 69.0605 33.3867C69.1582 33.4141 69.2422 33.4531 69.3125 33.5039C69.4688 33.6172 69.5469 33.7715 69.5469 33.9668C69.5469 34.1621 69.4961 34.3477 69.3945 34.5234C69.293 34.6953 69.1641 34.8398 69.0078 34.957C68.7031 35.1836 68.3633 35.2969 67.9883 35.2969C67.4766 35.2969 67.0547 35.2305 66.7227 35.0977C66.4922 35.1797 66.2969 35.3301 66.1367 35.5488C66.0039 35.7285 65.9375 35.8906 65.9375 36.0352C65.9375 36.1758 65.9688 36.3145 66.0312 36.4512C66.0977 36.584 66.1895 36.7031 66.3066 36.8086C66.5645 37.0352 66.875 37.1484 67.2383 37.1484C68.082 37.1484 69.0645 36.7012 70.1855 35.8066L70.7188 35.3906C71.2812 34.9609 71.6816 34.7461 71.9199 34.7461C72.1621 34.7461 72.2832 34.9043 72.2832 35.2207ZM76.0098 32.2266C75.8965 32.3203 75.7734 32.3984 75.6406 32.4609C75.5078 32.5195 75.3594 32.5488 75.1953 32.5488C75.0312 32.5488 74.873 32.5215 74.7207 32.4668C74.5684 32.4121 74.4355 32.3359 74.3223 32.2383C74.0762 32.0273 73.9531 31.7578 73.9531 31.4297C73.9531 30.9258 74.375 30.5508 75.2188 30.3047C75.5039 30.2188 75.7383 30.1758 75.9219 30.1758C76.1055 30.1758 76.2422 30.1973 76.332 30.2402C76.4258 30.2793 76.502 30.332 76.5605 30.3984C76.6777 30.5312 76.7363 30.668 76.7363 30.8086C76.7363 30.9453 76.7188 31.0703 76.6836 31.1836C76.6523 31.2969 76.6055 31.4141 76.543 31.5352C76.4805 31.6562 76.4043 31.7773 76.3145 31.8984C76.2246 32.0195 76.123 32.1289 76.0098 32.2266ZM74.5332 38.6777C74.2363 38.8301 73.9473 38.9512 73.666 39.041C73.3848 39.1348 73.1074 39.1816 72.834 39.1816C72.5645 39.1816 72.2832 39.1172 71.9902 38.9883C71.7012 38.8555 71.4434 38.6797 71.2168 38.4609C70.7129 37.9727 70.4609 37.4297 70.4609 36.832C70.4609 36.2812 70.625 35.7227 70.9531 35.1562C71.2539 34.6445 71.6367 34.2148 72.1016 33.8672C72.5664 33.5195 72.998 33.3457 73.3965 33.3457C73.9668 33.3457 74.2715 33.5059 74.3105 33.8262C74.3223 33.9238 74.3281 34.0371 74.3281 34.166C74.3281 34.2949 74.2969 34.4434 74.2344 34.6113C74.1758 34.7754 74.0977 34.9414 74 35.1094C73.9062 35.2734 73.8008 35.4355 73.6836 35.5957C73.5703 35.752 73.4609 35.8945 73.3555 36.0234C73.1523 36.2695 72.9902 36.4473 72.8691 36.5566C72.8691 36.6895 72.9688 36.8262 73.168 36.9668C73.3555 37.0996 73.5137 37.166 73.6426 37.166C73.7754 37.166 73.9297 37.1348 74.1055 37.0723C74.2852 37.0098 74.4688 36.9258 74.6562 36.8203C74.8477 36.7148 75.041 36.5938 75.2363 36.457C75.4355 36.3203 75.6309 36.1797 75.8223 36.0352L76.8945 35.1973C77.3203 34.8887 77.666 34.7344 77.9316 34.7344C78.0371 34.7344 78.1172 34.7734 78.1719 34.8516C78.2305 34.9258 78.2598 35.0137 78.2598 35.1152C78.2598 35.2168 78.209 35.3574 78.1074 35.5371C78.0059 35.7129 77.8652 35.9082 77.6855 36.123C77.5098 36.3379 77.3027 36.5625 77.0645 36.7969C76.8262 37.0312 76.5684 37.2617 76.291 37.4883C76.0137 37.7148 75.7246 37.9316 75.4238 38.1387C75.127 38.3418 74.8301 38.5215 74.5332 38.6777ZM87.084 34.5996C87.209 34.5996 87.2715 34.7051 87.2715 34.916C87.2715 35.2793 87.0176 35.75 86.5098 36.3281L86.1758 36.668C85.1641 37.6797 84.2109 38.3535 83.3164 38.6895C82.7617 38.8965 82.3633 38.8867 82.1211 38.6602C81.9219 38.4688 81.7637 38.1602 81.6465 37.7344L81.5059 37.2246L80.2578 37.9922L79.5371 38.4023C78.6777 38.8711 78.0332 39.1055 77.6035 39.1055C77.0527 39.1055 76.5938 38.8926 76.2266 38.4668C75.875 38.0645 75.6992 37.5977 75.6992 37.0664C75.6992 36.543 75.9082 36.0762 76.3262 35.666C76.9238 35.0801 77.8672 34.543 79.1562 34.0547C80.375 33.5977 81.3594 33.3691 82.1094 33.3691C82.3633 33.3691 82.4902 33.4941 82.4902 33.7441C82.4902 33.916 82.457 34.0449 82.3906 34.1309C82.3242 34.2168 82.1875 34.3047 81.9805 34.3945L81.2422 34.7109C80.1484 35.168 79.3477 35.6426 78.8398 36.1348C78.6953 36.2715 78.623 36.4043 78.623 36.5332C78.623 36.6621 78.7266 36.7266 78.9336 36.7266C79.1367 36.7266 79.6094 36.5078 80.3516 36.0703L80.8379 35.7832C81.5918 35.3301 82.2227 35.1035 82.7305 35.1035C83.1602 35.1035 83.4453 35.293 83.5859 35.6719C83.6211 35.7734 83.6543 35.877 83.6855 35.9824C83.7168 36.084 83.748 36.1758 83.7793 36.2578C83.8496 36.4492 83.9121 36.5449 83.9668 36.5449C84.0254 36.5449 84.1074 36.5176 84.2129 36.4629C84.3184 36.4043 84.4336 36.332 84.5586 36.2461C84.6875 36.1562 84.8203 36.0586 84.957 35.9531L85.666 35.3848C86.2949 34.8613 86.7676 34.5996 87.084 34.5996ZM92.7969 34.8633C93.0469 34.8633 93.1719 34.9668 93.1719 35.1738C93.1719 35.4277 93.0195 35.7305 92.7148 36.082C92.2109 36.668 91.6172 37.2383 90.9336 37.793C89.8203 38.6836 88.8262 39.1289 87.9512 39.1289C87.3223 39.1289 86.8066 38.8555 86.4043 38.3086C85.9863 37.7383 85.7773 36.9727 85.7773 36.0117C85.7773 34.75 86.3926 33.3555 87.623 31.8281C88.4043 30.8555 89.1406 30.1953 89.832 29.8477C90.0469 29.7383 90.2109 29.6836 90.3242 29.6836C90.4414 29.6836 90.5469 29.7031 90.6406 29.7422C90.7383 29.7773 90.8281 29.8281 90.9102 29.8945C91.1016 30.0547 91.1973 30.248 91.1973 30.4746C91.1973 30.7012 91.1348 30.9707 91.0098 31.2832C90.8848 31.5918 90.7031 31.9219 90.4648 32.2734C89.9609 33.0195 89.2793 33.7344 88.4199 34.418C88.1973 34.8438 88.0859 35.3555 88.0859 35.9531C88.0859 36.2227 88.1719 36.4766 88.3438 36.7148C88.5195 36.9531 88.7129 37.0723 88.9238 37.0723C89.2129 37.0723 89.7656 36.7734 90.582 36.1758L91.625 35.373C92.0508 35.0332 92.4414 34.8633 92.7969 34.8633Z" fill="#3369E7"/>
<path d="M94.125 38.6367C94.0586 38.5234 94.0332 38.4141 94.0488 38.3086C94.0684 38.1992 94.1211 38.0586 94.207 37.8867C94.293 37.7109 94.4102 37.4922 94.5586 37.2305L95.0742 36.3516L95.707 35.3086L96.4219 34.1836L97.1719 33.0586C96.2305 33.293 95.5117 33.5723 95.0156 33.8965C94.9336 33.9512 94.8633 34.0078 94.8047 34.0664L94.6055 34.2656C94.4844 34.3867 94.3652 34.4473 94.248 34.4473C94.1309 34.4473 94.0391 34.4336 93.9727 34.4062C93.9102 34.375 93.8594 34.3359 93.8203 34.2891C93.7227 34.1758 93.7051 34.0508 93.7676 33.9141C93.9355 33.375 94.1758 32.8242 94.4883 32.2617C94.6602 31.9492 94.7969 31.7695 94.8984 31.7227C95.6406 31.4023 97.1875 31.1699 99.5391 31.0254C100.305 30.9785 101.109 30.9551 101.953 30.9551C102.504 30.9551 103.027 31.1523 103.523 31.5469C104.078 31.9961 104.355 32.5586 104.355 33.2344C104.355 34.1172 103.598 34.9531 102.082 35.7422C101.242 36.1836 100.453 36.4922 99.7148 36.668C99.5234 36.7109 99.375 36.7324 99.2695 36.7324C99.168 36.7324 99.0508 36.7188 98.918 36.6914C98.7891 36.6641 98.6719 36.625 98.5664 36.5742C98.3164 36.4492 98.1914 36.2988 98.1914 36.123C98.1914 35.873 98.4316 35.6191 98.9121 35.3613L100.172 34.6816C100.918 34.2832 101.379 33.9941 101.555 33.8145C101.73 33.6348 101.818 33.4883 101.818 33.375C101.818 33.2578 101.795 33.1504 101.748 33.0527C101.705 32.9551 101.645 32.8672 101.566 32.7891C101.398 32.6211 101.219 32.5371 101.027 32.5371C100.629 32.5371 100.148 32.5684 99.5859 32.6309L98.8711 33.8906C97.957 35.5508 97.3359 37.043 97.0078 38.3672C96.875 38.8828 96.373 39.1406 95.502 39.1406C94.7832 39.1406 94.3242 38.9727 94.125 38.6367ZM110.168 35.3906C110.168 35.6016 110.348 35.707 110.707 35.707C110.973 35.707 111.32 35.5781 111.75 35.3203L112.219 35.0625C112.363 34.9805 112.488 34.9395 112.594 34.9395C112.703 34.9395 112.789 34.9727 112.852 35.0391C112.914 35.1055 112.945 35.1973 112.945 35.3145C112.945 35.4316 112.906 35.5684 112.828 35.7246C112.75 35.877 112.643 36.0391 112.506 36.2109C112.369 36.3789 112.209 36.5469 112.025 36.7148C111.842 36.8789 111.645 37.0273 111.434 37.1602C110.965 37.4531 110.529 37.5996 110.127 37.5996C109.701 37.5996 109.361 37.5273 109.107 37.3828C109.029 37.3359 108.953 37.2871 108.879 37.2363C108.461 37.7129 107.855 38.1504 107.062 38.5488C106.219 38.9707 105.482 39.1816 104.854 39.1816C104.193 39.1816 103.672 38.9219 103.289 38.4023C102.98 37.9805 102.826 37.5527 102.826 37.1191C102.826 36.4941 103.16 35.8984 103.828 35.332C104.32 34.918 104.795 34.6035 105.252 34.3887C105.713 34.1738 106.129 34.0078 106.5 33.8906C107.285 33.6445 107.992 33.5215 108.621 33.5215C108.902 33.5215 109.152 33.5762 109.371 33.6855C109.594 33.791 109.758 33.8984 109.863 34.0078C110.113 34.2539 110.238 34.5684 110.238 34.9512C110.238 35.0645 110.227 35.1523 110.203 35.2148C110.18 35.2773 110.168 35.3359 110.168 35.3906ZM105.375 36.498L105.369 36.5156V36.5215C105.369 36.6895 105.406 36.7988 105.48 36.8496C105.66 36.959 105.85 36.9883 106.049 36.9375C106.248 36.8828 106.438 36.8164 106.617 36.7383C107.062 36.5469 107.465 36.3047 107.824 36.0117C107.762 35.8867 107.73 35.7578 107.73 35.625C107.73 35.3438 107.854 35.0625 108.1 34.7812C107.787 34.7812 107.365 34.9277 106.834 35.2207C106.248 35.5449 105.809 35.8789 105.516 36.2227C105.422 36.3398 105.375 36.4316 105.375 36.498ZM115.641 33.293C115.68 33.3711 115.699 33.4746 115.699 33.6035C115.699 33.7285 115.635 33.8711 115.506 34.0312C115.607 34.1367 115.736 34.2598 115.893 34.4004C116.053 34.5371 116.207 34.6875 116.355 34.8516C116.715 35.2539 116.895 35.6387 116.895 36.0059C116.895 36.248 116.729 36.543 116.396 36.8906C116.295 37 116.184 37.1016 116.062 37.1953C116.469 37.0391 116.957 36.7285 117.527 36.2637L118.213 35.7012C118.611 35.3691 118.877 35.1777 119.01 35.127C119.146 35.0762 119.27 35.0508 119.379 35.0508C119.488 35.0508 119.594 35.0781 119.695 35.1328C119.801 35.1875 119.854 35.2773 119.854 35.4023C119.854 35.5234 119.834 35.6426 119.795 35.7598C119.756 35.873 119.709 35.9785 119.654 36.0762C119.576 36.2168 119.463 36.3613 119.314 36.5098C118.904 36.8965 118.506 37.252 118.119 37.5762C117.736 37.8965 117.34 38.1719 116.93 38.4023C116.062 38.8867 115.102 39.1289 114.047 39.1289C113.457 39.1289 112.945 38.9785 112.512 38.6777C112.332 38.5527 112.193 38.4238 112.096 38.291C112.002 38.1543 111.955 38.0488 111.955 37.9746C111.955 37.8965 111.98 37.8164 112.031 37.7344C112.082 37.6484 112.15 37.5605 112.236 37.4707C112.322 37.3809 112.42 37.291 112.529 37.2012C112.643 37.1113 112.758 37.0312 112.875 36.9609C113.148 36.8008 113.352 36.7207 113.484 36.7207C113.621 36.7207 113.725 36.7383 113.795 36.7734C113.865 36.8047 113.93 36.8398 113.988 36.8789C114.148 36.9883 114.262 37.043 114.328 37.043C114.488 37.043 114.568 36.9336 114.568 36.7148C114.568 36.5117 114.461 36.2676 114.246 35.9824C114.16 35.8652 114.07 35.75 113.977 35.6367C113.883 35.5234 113.805 35.4121 113.742 35.3027C113.617 35.4473 113.461 35.5957 113.273 35.748L112.705 36.2285C112.311 36.5684 111.945 36.7305 111.609 36.7148C111.414 36.6992 111.316 36.4824 111.316 36.0645C111.316 35.9902 111.322 35.918 111.334 35.8477C111.354 35.7266 111.473 35.5801 111.691 35.4082C111.91 35.2363 112.068 35.1191 112.166 35.0566C112.268 34.9902 112.354 34.9316 112.424 34.8809L113.045 34.459C113.045 34.0605 113.275 33.6953 113.736 33.3633C114.174 33.0508 114.607 32.8945 115.037 32.8945C115.311 32.8945 115.512 33.0273 115.641 33.293ZM125.373 34.9863C125.756 34.9863 125.947 35.1191 125.947 35.3848C125.947 35.6387 125.768 35.9668 125.408 36.3691L125.121 36.668C124.773 37.0234 124.367 37.373 123.902 37.7168C123.441 38.0605 123.035 38.332 122.684 38.5312C121.867 38.9844 121.127 39.2109 120.463 39.2109C119.838 39.2109 119.328 39.0234 118.934 38.6484C118.594 38.3242 118.424 37.9824 118.424 37.623C118.424 37.2637 118.459 36.9062 118.529 36.5508C118.6 36.1953 118.691 35.8477 118.805 35.5078C119.031 34.8164 119.279 34.2285 119.549 33.7441C119.619 33.6113 119.654 33.5254 119.654 33.4863H118.898C118.613 33.4863 118.393 33.4199 118.236 33.2871C118.08 33.1543 118.002 33.0039 118.002 32.8359C118.002 32.668 118.033 32.5449 118.096 32.4668C118.158 32.3887 118.236 32.332 118.33 32.2969C118.463 32.2422 118.658 32.2148 118.916 32.2148L120.352 32.2207C120.383 32.209 120.445 32.125 120.539 31.9688L120.896 31.3535C121.049 31.0801 121.201 30.8789 121.354 30.75C121.51 30.6211 121.691 30.5566 121.898 30.5566C122.109 30.5566 122.285 30.5762 122.426 30.6152C122.57 30.6543 122.691 30.7031 122.789 30.7617C122.98 30.8867 123.076 31.0234 123.076 31.1719C123.076 31.2344 123.055 31.3184 123.012 31.4238L122.684 32.2207L125.467 32.2148C125.709 32.2148 125.83 32.3398 125.83 32.5898C125.83 33.1836 125.301 33.4805 124.242 33.4805L122.098 33.4863C122.051 33.5098 121.971 33.623 121.857 33.8262L121.594 34.3125C121.527 34.4336 121.48 34.5254 121.453 34.5879L121.324 34.875C121.062 35.4648 120.932 35.8906 120.932 36.1523C120.932 36.4141 121 36.6328 121.137 36.8086C121.277 36.9844 121.463 37.0723 121.693 37.0723C121.924 37.0723 122.148 37.0273 122.367 36.9375C122.59 36.8477 122.807 36.7383 123.018 36.6094C123.4 36.3711 123.701 36.1504 123.92 35.9473C124.139 35.7441 124.32 35.5898 124.465 35.4844C124.465 35.4844 124.602 35.3887 124.875 35.1973C125.086 35.0566 125.252 34.9863 125.373 34.9863Z" fill="#33475B"/>
<path d="M127.057 39.056C126.814 39.056 126.618 38.9907 126.469 38.86C126.324 38.7247 126.252 38.5543 126.252 38.349C126.252 38.1437 126.324 37.9733 126.469 37.838C126.618 37.7027 126.814 37.635 127.057 37.635C127.295 37.635 127.486 37.7027 127.631 37.838C127.78 37.9733 127.855 38.1437 127.855 38.349C127.855 38.5497 127.78 38.7177 127.631 38.853C127.486 38.9883 127.295 39.056 127.057 39.056ZM128.273 37.033C128.273 36.627 128.357 36.2723 128.525 35.969C128.693 35.6657 128.927 35.4323 129.225 35.269C129.529 35.1057 129.874 35.024 130.261 35.024C130.761 35.024 131.181 35.1617 131.521 35.437C131.862 35.7077 132.081 36.088 132.179 36.578H130.723C130.639 36.3213 130.476 36.193 130.233 36.193C130.061 36.193 129.923 36.2653 129.82 36.41C129.722 36.55 129.673 36.7577 129.673 37.033C129.673 37.3083 129.722 37.5183 129.82 37.663C129.923 37.8077 130.061 37.88 130.233 37.88C130.481 37.88 130.644 37.7517 130.723 37.495H132.179C132.081 37.9803 131.862 38.3607 131.521 38.636C131.181 38.9113 130.761 39.049 130.261 39.049C129.874 39.049 129.529 38.9673 129.225 38.804C128.927 38.6407 128.693 38.4073 128.525 38.104C128.357 37.8007 128.273 37.4437 128.273 37.033ZM134.576 39.049C134.184 39.049 133.832 38.9673 133.519 38.804C133.211 38.6407 132.969 38.4073 132.791 38.104C132.614 37.8007 132.525 37.4437 132.525 37.033C132.525 36.627 132.614 36.2723 132.791 35.969C132.973 35.6657 133.218 35.4323 133.526 35.269C133.839 35.1057 134.191 35.024 134.583 35.024C134.975 35.024 135.325 35.1057 135.633 35.269C135.946 35.4323 136.191 35.6657 136.368 35.969C136.55 36.2723 136.641 36.627 136.641 37.033C136.641 37.439 136.55 37.796 136.368 38.104C136.191 38.4073 135.946 38.6407 135.633 38.804C135.321 38.9673 134.968 39.049 134.576 39.049ZM134.576 37.859C134.768 37.859 134.926 37.789 135.052 37.649C135.183 37.5043 135.248 37.299 135.248 37.033C135.248 36.767 135.183 36.564 135.052 36.424C134.926 36.284 134.77 36.214 134.583 36.214C134.397 36.214 134.24 36.284 134.114 36.424C133.988 36.564 133.925 36.767 133.925 37.033C133.925 37.3037 133.986 37.509 134.107 37.649C134.229 37.789 134.385 37.859 134.576 37.859ZM142.331 35.038C142.825 35.038 143.213 35.1873 143.493 35.486C143.777 35.7847 143.92 36.193 143.92 36.711V39H142.548V36.893C142.548 36.683 142.489 36.5197 142.373 36.403C142.256 36.2863 142.097 36.228 141.897 36.228C141.696 36.228 141.537 36.2863 141.421 36.403C141.304 36.5197 141.246 36.683 141.246 36.893V39H139.874V36.893C139.874 36.683 139.815 36.5197 139.699 36.403C139.587 36.2863 139.43 36.228 139.23 36.228C139.024 36.228 138.863 36.2863 138.747 36.403C138.63 36.5197 138.572 36.683 138.572 36.893V39H137.2V35.073H138.572V35.591C138.693 35.423 138.849 35.29 139.041 35.192C139.237 35.0893 139.461 35.038 139.713 35.038C140.002 35.038 140.259 35.101 140.483 35.227C140.711 35.353 140.891 35.5303 141.022 35.759C141.162 35.5443 141.346 35.3717 141.575 35.241C141.803 35.1057 142.055 35.038 142.331 35.038Z" fill="#33475B"/>
<path opacity="0.4" d="M28.4792 28.3687H24.7722C21.7313 28.3687 19.2542 26.0287 19.2542 23.12V19.5937C19.2542 18.9275 18.6905 18.375 17.973 18.375H12.5576C8.61133 18.375 5.41675 20.8125 5.41675 25.1675V35.9575C5.41675 40.3125 8.61133 42.75 12.5576 42.75H22.6197C26.5659 42.75 29.7605 40.3125 29.7605 35.9575V29.5875C29.7605 28.905 29.1797 28.3687 28.4792 28.3687Z" fill="#3369E7"/>
<path d="M32.4422 10.25H29.0768H27.2147H22.3801C18.5193 10.25 15.393 12.59 15.2563 16.7662C15.3588 16.7662 15.4443 16.75 15.5468 16.75H20.3814H22.2435H25.6089C29.5551 16.75 32.7497 19.1875 32.7497 23.5425V26.7437V31.1475V34.3487C32.7497 34.4462 32.7326 34.5275 32.7326 34.6087C36.5422 34.495 39.5831 32.09 39.5831 27.8487V24.6475V20.2437V17.0425C39.5831 12.6875 36.3885 10.25 32.4422 10.25Z" fill="#3369E7"/>
<path d="M22.4667 18.6191C21.9372 18.1154 21.0317 18.4566 21.0317 19.1554V23.4128C21.0317 25.2003 22.6205 26.6628 24.568 26.6628C25.7809 26.6791 27.4722 26.6791 28.9242 26.6791C29.6588 26.6791 30.0347 25.8666 29.5222 25.3791C27.6601 23.6078 24.3459 20.4391 22.4667 18.6191Z" fill="#3369E7"/>
</svg>
