<svg width="126" height="38" viewBox="0 0 126 38" fill="none" xmlns="http://www.w3.org/2000/svg">
<g clip-path="url(#clip0_65_2)">
<path d="M52.108 17.484C52.852 17.652 53.44 18.024 53.872 18.6C54.316 19.164 54.538 19.812 54.538 20.544C54.538 21.624 54.166 22.47 53.422 23.082C52.678 23.694 51.634 24 50.29 24H44.008V11.31H50.092C51.388 11.31 52.402 11.598 53.134 12.174C53.878 12.75 54.25 13.56 54.25 14.604C54.25 15.348 54.052 15.972 53.656 16.476C53.272 16.968 52.756 17.304 52.108 17.484ZM47.536 16.35H49.318C50.206 16.35 50.65 15.984 50.65 15.252C50.65 14.496 50.206 14.118 49.318 14.118H47.536V16.35ZM49.588 21.156C50.476 21.156 50.92 20.784 50.92 20.04C50.92 19.656 50.8 19.362 50.56 19.158C50.332 18.954 50.002 18.852 49.57 18.852H47.536V21.156H49.588ZM66.4162 13.902V24H62.8702V22.56C62.5702 23.016 62.1562 23.388 61.6282 23.676C61.1002 23.952 60.4942 24.09 59.8102 24.09C58.6342 24.09 57.7042 23.706 57.0202 22.938C56.3482 22.158 56.0122 21.102 56.0122 19.77V13.902H59.5222V19.32C59.5222 19.896 59.6722 20.352 59.9722 20.688C60.2842 21.012 60.6922 21.174 61.1962 21.174C61.7122 21.174 62.1202 21.012 62.4202 20.688C62.7202 20.352 62.8702 19.896 62.8702 19.32V13.902H66.4162ZM70.206 12.966C69.582 12.966 69.078 12.798 68.694 12.462C68.322 12.114 68.136 11.682 68.136 11.166C68.136 10.638 68.322 10.2 68.694 9.852C69.078 9.504 69.582 9.33 70.206 9.33C70.818 9.33 71.31 9.504 71.682 9.852C72.066 10.2 72.258 10.638 72.258 11.166C72.258 11.682 72.066 12.114 71.682 12.462C71.31 12.798 70.818 12.966 70.206 12.966ZM71.952 13.902V24H68.424V13.902H71.952ZM77.4891 10.68V24H73.9611V10.68H77.4891ZM78.9222 18.942C78.9222 17.898 79.1082 16.986 79.4802 16.206C79.8642 15.426 80.3862 14.826 81.0462 14.406C81.7062 13.986 82.4382 13.776 83.2422 13.776C83.8902 13.776 84.4662 13.914 84.9702 14.19C85.4862 14.454 85.8882 14.82 86.1762 15.288V10.68H89.7222V24H86.1762V22.596C85.9002 23.064 85.5102 23.436 85.0062 23.712C84.5022 23.988 83.9082 24.126 83.2242 24.126C82.4202 24.126 81.6882 23.916 81.0282 23.496C80.3802 23.076 79.8642 22.476 79.4802 21.696C79.1082 20.904 78.9222 19.986 78.9222 18.942ZM86.1942 18.942C86.1942 18.294 86.0142 17.784 85.6542 17.412C85.3062 17.04 84.8742 16.854 84.3582 16.854C83.8302 16.854 83.3922 17.04 83.0442 17.412C82.6962 17.772 82.5222 18.282 82.5222 18.942C82.5222 19.59 82.6962 20.106 83.0442 20.49C83.3922 20.862 83.8302 21.048 84.3582 21.048C84.8742 21.048 85.3062 20.862 85.6542 20.49C86.0142 20.118 86.1942 19.602 86.1942 18.942Z" fill="white"/>
<path d="M103.057 32.056C102.814 32.056 102.618 31.9907 102.469 31.86C102.324 31.7247 102.252 31.5543 102.252 31.349C102.252 31.1437 102.324 30.9733 102.469 30.838C102.618 30.7027 102.814 30.635 103.057 30.635C103.295 30.635 103.486 30.7027 103.631 30.838C103.78 30.9733 103.855 31.1437 103.855 31.349C103.855 31.5497 103.78 31.7177 103.631 31.853C103.486 31.9883 103.295 32.056 103.057 32.056ZM104.273 30.033C104.273 29.627 104.357 29.2723 104.525 28.969C104.693 28.6657 104.927 28.4323 105.225 28.269C105.529 28.1057 105.874 28.024 106.261 28.024C106.761 28.024 107.181 28.1617 107.521 28.437C107.862 28.7077 108.081 29.088 108.179 29.578H106.723C106.639 29.3213 106.476 29.193 106.233 29.193C106.061 29.193 105.923 29.2653 105.82 29.41C105.722 29.55 105.673 29.7577 105.673 30.033C105.673 30.3083 105.722 30.5183 105.82 30.663C105.923 30.8077 106.061 30.88 106.233 30.88C106.481 30.88 106.644 30.7517 106.723 30.495H108.179C108.081 30.9803 107.862 31.3607 107.521 31.636C107.181 31.9113 106.761 32.049 106.261 32.049C105.874 32.049 105.529 31.9673 105.225 31.804C104.927 31.6407 104.693 31.4073 104.525 31.104C104.357 30.8007 104.273 30.4437 104.273 30.033ZM110.576 32.049C110.184 32.049 109.832 31.9673 109.519 31.804C109.211 31.6407 108.969 31.4073 108.791 31.104C108.614 30.8007 108.525 30.4437 108.525 30.033C108.525 29.627 108.614 29.2723 108.791 28.969C108.973 28.6657 109.218 28.4323 109.526 28.269C109.839 28.1057 110.191 28.024 110.583 28.024C110.975 28.024 111.325 28.1057 111.633 28.269C111.946 28.4323 112.191 28.6657 112.368 28.969C112.55 29.2723 112.641 29.627 112.641 30.033C112.641 30.439 112.55 30.796 112.368 31.104C112.191 31.4073 111.946 31.6407 111.633 31.804C111.321 31.9673 110.968 32.049 110.576 32.049ZM110.576 30.859C110.768 30.859 110.926 30.789 111.052 30.649C111.183 30.5043 111.248 30.299 111.248 30.033C111.248 29.767 111.183 29.564 111.052 29.424C110.926 29.284 110.77 29.214 110.583 29.214C110.397 29.214 110.24 29.284 110.114 29.424C109.988 29.564 109.925 29.767 109.925 30.033C109.925 30.3037 109.986 30.509 110.107 30.649C110.229 30.789 110.385 30.859 110.576 30.859ZM118.331 28.038C118.825 28.038 119.213 28.1873 119.493 28.486C119.777 28.7847 119.92 29.193 119.92 29.711V32H118.548V29.893C118.548 29.683 118.489 29.5197 118.373 29.403C118.256 29.2863 118.097 29.228 117.897 29.228C117.696 29.228 117.537 29.2863 117.421 29.403C117.304 29.5197 117.246 29.683 117.246 29.893V32H115.874V29.893C115.874 29.683 115.815 29.5197 115.699 29.403C115.587 29.2863 115.43 29.228 115.23 29.228C115.024 29.228 114.863 29.2863 114.747 29.403C114.63 29.5197 114.572 29.683 114.572 29.893V32H113.2V28.073H114.572V28.591C114.693 28.423 114.849 28.29 115.041 28.192C115.237 28.0893 115.461 28.038 115.713 28.038C116.002 28.038 116.259 28.101 116.483 28.227C116.711 28.353 116.891 28.5303 117.022 28.759C117.162 28.5443 117.346 28.3717 117.575 28.241C117.803 28.1057 118.055 28.038 118.331 28.038Z" fill="white"/>
<path d="M45.8896 29.4756C45.8896 30.0736 46.4858 30.3726 47.6782 30.3726C48.4839 30.3726 49.4954 30.0682 50.7129 29.4595L51.2607 29.1694C52.0915 28.7469 52.5605 28.6556 52.668 28.8955C52.6966 28.96 52.7109 29.0352 52.7109 29.1211C52.7109 29.2035 52.6751 29.2894 52.6035 29.3789C52.5355 29.4648 52.4424 29.5615 52.3242 29.6689C52.2061 29.7728 52.0682 29.8838 51.9106 30.002C51.7531 30.1165 51.5866 30.2311 51.4111 30.3457L50.8848 30.6733C50.7057 30.7808 50.5124 30.8864 50.3047 30.9902L49.5205 31.377C48.2923 31.9499 47.134 32.2363 46.0454 32.2363C45.0929 32.2363 44.3607 32.0483 43.8486 31.6724C43.3903 31.3394 43.1611 30.9097 43.1611 30.3833C43.1611 29.6564 43.4888 28.9242 44.144 28.1865C44.7098 27.5527 45.485 26.9512 46.4697 26.3818C47.3291 25.8841 48.2458 25.4759 49.2197 25.1572C50.14 24.8529 50.8866 24.7007 51.4595 24.7007C51.5812 24.7007 51.6833 24.7401 51.7656 24.8188C51.916 24.9585 51.9912 25.0964 51.9912 25.2324C51.9912 25.7624 51.771 26.1903 51.3306 26.5161C50.9546 26.7918 50.516 26.9297 50.0146 26.9297C49.5133 26.9297 49.1374 26.8796 48.8867 26.7793C47.9521 27.141 47.193 27.6261 46.6094 28.2349C46.3659 28.4891 46.1851 28.7272 46.0669 28.9492C45.9487 29.1712 45.8896 29.3467 45.8896 29.4756ZM61.1382 27.9663C61.2528 27.9663 61.3101 28.063 61.3101 28.2563C61.3101 28.5894 61.0773 29.0208 60.6118 29.5508L60.3057 29.8623C59.3783 30.7897 58.5046 31.4074 57.6846 31.7153C57.1761 31.9051 56.8109 31.8962 56.5889 31.6885C56.4062 31.513 56.2612 31.2301 56.1538 30.8398L56.0249 30.3726L54.8809 31.0762L54.2202 31.4521C53.4325 31.8818 52.8416 32.0967 52.4478 32.0967C51.9429 32.0967 51.5221 31.9015 51.1855 31.5112C50.8633 31.1424 50.7021 30.7145 50.7021 30.2275C50.7021 29.7477 50.8937 29.3198 51.2769 28.9438C51.8247 28.4067 52.6895 27.9144 53.8711 27.4668C54.9883 27.0479 55.8906 26.8384 56.5781 26.8384C56.8109 26.8384 56.9272 26.953 56.9272 27.1821C56.9272 27.3397 56.8968 27.4578 56.8359 27.5366C56.7751 27.6154 56.6497 27.696 56.46 27.7783L55.7832 28.0684C54.7806 28.4873 54.0465 28.9224 53.5811 29.3735C53.4486 29.4989 53.3823 29.6206 53.3823 29.7388C53.3823 29.8569 53.4772 29.916 53.667 29.916C53.8532 29.916 54.2865 29.7155 54.9668 29.3145L55.4126 29.0513C56.1037 28.6359 56.682 28.4282 57.1475 28.4282C57.5413 28.4282 57.8027 28.6019 57.9316 28.9492C57.9639 29.0423 57.9943 29.1372 58.0229 29.2339C58.0516 29.327 58.0802 29.4111 58.1089 29.4863C58.1733 29.6618 58.2306 29.7495 58.2808 29.7495C58.3345 29.7495 58.4097 29.7244 58.5063 29.6743C58.603 29.6206 58.7087 29.5544 58.8232 29.4756C58.9414 29.3932 59.0632 29.3037 59.1885 29.207L59.8384 28.686C60.4149 28.2062 60.8481 27.9663 61.1382 27.9663ZM59.7363 30.2275C59.6683 30.2275 59.6021 30.2114 59.5376 30.1792C59.4696 30.147 59.4069 30.0951 59.3496 30.0234C59.2243 29.8659 59.1616 29.651 59.1616 29.3789C59.1616 29.0889 59.3353 28.7272 59.6826 28.2939C60.0192 27.875 60.4113 27.5133 60.8589 27.209C61.3387 26.8796 61.7505 26.7148 62.0942 26.7148C62.3986 26.7148 62.6045 26.8008 62.7119 26.9727L62.7871 27.0908C62.8444 27.1803 62.9017 27.2251 62.959 27.2251C63.0163 27.2251 63.1058 27.2197 63.2275 27.209L63.9902 27.1553C64.1084 27.1445 64.2015 27.1392 64.2695 27.1392C64.3376 27.1392 64.4146 27.1642 64.5005 27.2144C64.59 27.2609 64.6688 27.3236 64.7368 27.4023C64.8872 27.5814 64.9624 27.7783 64.9624 27.9932C64.9624 28.2152 64.7171 28.5643 64.2266 29.0405L63.8721 29.395C63.6178 29.6564 63.4907 29.8211 63.4907 29.8892C63.4907 29.9572 63.5229 30.0181 63.5874 30.0718C63.6519 30.1219 63.7217 30.147 63.7969 30.147C63.8721 30.147 63.9562 30.1273 64.0493 30.0879C64.146 30.0449 64.2642 29.984 64.4038 29.9053C64.5435 29.8229 64.7028 29.7244 64.8818 29.6099C65.3724 29.2876 65.7 29.0656 65.8647 28.9438L66.3105 28.627C66.6149 28.4121 66.8315 28.3047 66.9604 28.3047C67.0894 28.3047 67.195 28.3333 67.2773 28.3906C67.3597 28.4443 67.4009 28.5392 67.4009 28.6753C67.4009 28.8114 67.3311 28.994 67.1914 29.2231C67.0518 29.4523 66.8996 29.651 66.7349 29.8193C66.5737 29.9876 66.4162 30.1434 66.2622 30.2866C66.1082 30.4299 65.9256 30.5856 65.7144 30.7539C65.5067 30.9186 65.2757 31.0869 65.0215 31.2588C64.7673 31.4271 64.4987 31.5793 64.2158 31.7153C63.5749 32.0269 62.9858 32.1826 62.4487 32.1826C61.6646 32.1826 61.1865 31.9803 61.0146 31.5757C60.9609 31.4539 60.9341 31.3179 60.9341 31.1675C60.9341 31.0171 60.9627 30.856 61.02 30.6841C61.0773 30.5086 61.1525 30.335 61.2456 30.1631C61.4318 29.8229 61.652 29.5221 61.9062 29.2607C62.1211 29.0352 62.2285 28.9009 62.2285 28.8579C62.2285 28.7899 62.1891 28.7469 62.1104 28.729C62.0352 28.7111 61.9224 28.7021 61.772 28.7021C61.7075 28.7021 61.5697 28.7952 61.3584 28.9814L60.832 29.4648C60.2734 29.9733 59.9082 30.2275 59.7363 30.2275ZM72.1113 28.6914C72.1113 28.8848 72.276 28.9814 72.6055 28.9814C72.849 28.9814 73.1676 28.8633 73.5615 28.627L73.9912 28.3906C74.1237 28.3154 74.2383 28.2778 74.335 28.2778C74.4352 28.2778 74.514 28.3083 74.5713 28.3691C74.6286 28.43 74.6572 28.5142 74.6572 28.6216C74.6572 28.729 74.6214 28.8543 74.5498 28.9976C74.4782 29.1372 74.3797 29.2858 74.2544 29.4434C74.1291 29.5973 73.9823 29.7513 73.814 29.9053C73.6457 30.0557 73.4648 30.1917 73.2715 30.3135C72.8418 30.582 72.4425 30.7163 72.0737 30.7163C71.6834 30.7163 71.3719 30.6501 71.1392 30.5176C71.0675 30.4746 70.9977 30.4299 70.9297 30.3833C70.5465 30.8201 69.9915 31.2212 69.2646 31.5864C68.4912 31.9731 67.8162 32.1665 67.2397 32.1665C66.6346 32.1665 66.1566 31.9284 65.8057 31.4521C65.5228 31.0654 65.3813 30.6733 65.3813 30.2759C65.3813 29.703 65.6875 29.1569 66.2998 28.6377C66.751 28.2581 67.186 27.9699 67.605 27.7729C68.0275 27.576 68.4089 27.4238 68.749 27.3164C69.4688 27.0908 70.1169 26.978 70.6934 26.978C70.9512 26.978 71.1803 27.0282 71.3809 27.1284C71.585 27.2251 71.7354 27.3236 71.832 27.4238C72.0612 27.6494 72.1758 27.9377 72.1758 28.2886C72.1758 28.3924 72.165 28.473 72.1436 28.5303C72.1221 28.5876 72.1113 28.6413 72.1113 28.6914ZM67.7178 29.7065L67.7124 29.7227V29.728C67.7124 29.882 67.7464 29.9823 67.8145 30.0288C67.9792 30.1291 68.1528 30.1559 68.3354 30.1094C68.5181 30.0592 68.6917 29.9984 68.8564 29.9268C69.2646 29.7513 69.6335 29.5293 69.9629 29.2607C69.9056 29.1462 69.877 29.028 69.877 28.9062C69.877 28.6484 69.9897 28.3906 70.2153 28.1328C69.9289 28.1328 69.5422 28.2671 69.0552 28.5356C68.5181 28.8328 68.1152 29.139 67.8467 29.4541C67.7607 29.5615 67.7178 29.6457 67.7178 29.7065ZM80.2808 29.2983C80.2808 29.66 80.4401 29.8408 80.7588 29.8408C81.0775 29.8408 81.6289 29.5347 82.4131 28.9224L82.8857 28.5356C83.1973 28.2778 83.4945 28.1489 83.7773 28.1489C83.8812 28.1489 83.9492 28.1776 83.9814 28.2349C84.0137 28.2886 84.0298 28.3584 84.0298 28.4443C84.0298 28.5267 84.0137 28.6144 83.9814 28.7075C83.9528 28.797 83.9116 28.8919 83.8579 28.9922C83.7397 29.2178 83.6252 29.3932 83.5142 29.5186C83.4032 29.6439 83.2725 29.7746 83.1221 29.9106C82.9753 30.0431 82.7998 30.1935 82.5957 30.3618C82.3916 30.5265 82.166 30.6966 81.9189 30.8721C81.6719 31.0439 81.423 31.2015 81.1724 31.3447C80.6066 31.6742 80.1411 31.8389 79.7759 31.8389C79.339 31.8389 78.9971 31.6849 78.75 31.377C78.5173 31.0905 78.3866 30.7074 78.3579 30.2275C77.7134 30.89 77.0312 31.4002 76.3115 31.7583C75.8711 31.9767 75.4987 32.0859 75.1943 32.0859C74.89 32.0859 74.6232 32.0501 74.394 31.9785C74.1649 31.9033 73.9644 31.7923 73.7925 31.6455C73.4201 31.334 73.2339 30.9007 73.2339 30.3457C73.2339 29.5508 73.5186 28.7845 74.0879 28.0469C74.2669 27.8177 74.4674 27.6172 74.6895 27.4453C75.1693 27.1445 75.6777 26.9941 76.2148 26.9941C76.4512 26.9941 76.6195 27.0675 76.7197 27.2144C76.7591 27.2716 76.7788 27.3468 76.7788 27.4399C76.7788 27.5295 76.752 27.6351 76.6982 27.7568C76.6481 27.875 76.5854 28.0003 76.5103 28.1328C76.4351 28.2617 76.3509 28.396 76.2578 28.5356C76.1683 28.6753 76.0859 28.8114 76.0107 28.9438C75.8317 29.259 75.7422 29.4863 75.7422 29.626C75.7422 29.762 75.7816 29.8623 75.8604 29.9268C75.9391 29.9912 76.0358 30.0234 76.1504 30.0234C76.4046 30.0234 76.6213 29.9626 76.8003 29.8408C76.9793 29.7155 77.1566 29.5723 77.332 29.4111L77.8369 28.917L78.3257 28.4121C78.673 28.0576 78.9362 27.8374 79.1152 27.7515C79.2979 27.6619 79.4303 27.6279 79.5127 27.6494C79.5951 27.6709 79.6792 27.7103 79.7651 27.7676C79.8511 27.8213 79.9352 27.8875 80.0176 27.9663C80.2109 28.1525 80.3184 28.3208 80.3398 28.4712C80.347 28.5679 80.3381 28.7129 80.313 28.9062C80.2915 29.096 80.2808 29.2267 80.2808 29.2983ZM86.2695 26.7686C86.3053 26.8402 86.3232 26.9351 86.3232 27.0532C86.3232 27.1678 86.2642 27.2985 86.146 27.4453C86.2391 27.542 86.3573 27.6548 86.5005 27.7837C86.6473 27.909 86.7887 28.0469 86.9248 28.1973C87.2542 28.5661 87.4189 28.9188 87.4189 29.2554C87.4189 29.4774 87.2668 29.7477 86.9624 30.0664C86.8693 30.1667 86.7673 30.2598 86.6562 30.3457C87.0286 30.2025 87.4762 29.9178 87.999 29.4917L88.6274 28.9761C88.9927 28.6717 89.2362 28.4963 89.3579 28.4497C89.4832 28.4032 89.596 28.3799 89.6963 28.3799C89.7965 28.3799 89.8932 28.4049 89.9863 28.4551C90.083 28.5052 90.1313 28.5876 90.1313 28.7021C90.1313 28.8132 90.1134 28.9224 90.0776 29.0298C90.0418 29.1336 89.9989 29.2303 89.9487 29.3198C89.8771 29.4487 89.7733 29.5812 89.6372 29.7173C89.2612 30.0718 88.896 30.3976 88.5415 30.6948C88.1906 30.9884 87.8271 31.2409 87.4512 31.4521C86.6562 31.8962 85.7754 32.1182 84.8086 32.1182C84.2679 32.1182 83.7988 31.9803 83.4014 31.7046C83.2367 31.59 83.1095 31.4718 83.02 31.3501C82.9341 31.2248 82.8911 31.1281 82.8911 31.0601C82.8911 30.9884 82.9144 30.915 82.9609 30.8398C83.0075 30.7611 83.0701 30.6805 83.1489 30.5981C83.2277 30.5158 83.3172 30.4334 83.4175 30.3511C83.5213 30.2687 83.627 30.1953 83.7344 30.1309C83.985 29.984 84.1712 29.9106 84.293 29.9106C84.4183 29.9106 84.5132 29.9268 84.5776 29.959C84.6421 29.9876 84.7012 30.0199 84.7549 30.0557C84.9017 30.1559 85.0055 30.2061 85.0664 30.2061C85.2132 30.2061 85.2866 30.1058 85.2866 29.9053C85.2866 29.7191 85.1882 29.4953 84.9912 29.2339C84.9124 29.1265 84.8301 29.0208 84.7441 28.917C84.6582 28.8132 84.5866 28.7111 84.5293 28.6108C84.4147 28.7433 84.2715 28.8794 84.0996 29.019L83.5786 29.4595C83.217 29.771 82.8822 29.9196 82.5742 29.9053C82.3952 29.891 82.3057 29.6922 82.3057 29.3091C82.3057 29.241 82.311 29.1748 82.3218 29.1104C82.3397 28.9993 82.4489 28.8651 82.6494 28.7075C82.8499 28.55 82.995 28.4425 83.0845 28.3853C83.1776 28.3244 83.2563 28.2707 83.3208 28.2241L83.8901 27.8374C83.8901 27.4722 84.1014 27.1374 84.5239 26.833C84.925 26.5465 85.3224 26.4033 85.7163 26.4033C85.967 26.4033 86.1514 26.5251 86.2695 26.7686ZM96.6841 28.0522C96.856 28.0522 96.9419 28.1489 96.9419 28.3423C96.9419 28.4712 96.8971 28.6341 96.8076 28.8311C96.7217 29.0244 96.5964 29.207 96.4316 29.3789C96.2669 29.5472 96.0771 29.7227 95.8623 29.9053C95.651 30.0879 95.4022 30.2795 95.1157 30.48C94.8328 30.6805 94.5195 30.8792 94.1758 31.0762C93.832 31.2731 93.4668 31.4504 93.0801 31.6079C92.2243 31.9588 91.3953 32.1343 90.5933 32.1343C89.981 32.1343 89.4456 31.9749 88.9873 31.6562C88.5075 31.3232 88.2676 30.9186 88.2676 30.4424C88.2676 29.694 88.6704 28.9832 89.4761 28.3101C90.1707 27.73 90.9889 27.2806 91.9307 26.9619C92.5036 26.7686 92.9888 26.6719 93.3862 26.6719C93.7085 26.6719 93.9806 26.7507 94.2026 26.9082C94.439 27.0801 94.5571 27.311 94.5571 27.6011C94.5571 28.0558 94.1973 28.5589 93.4775 29.1104C93.363 29.1999 93.2591 29.2751 93.166 29.3359L92.9727 29.4648C92.6146 29.7155 92.0703 29.9966 91.3398 30.3081C91.5654 30.4263 91.7749 30.4854 91.9683 30.4854C92.1652 30.4854 92.3407 30.4621 92.4946 30.4155C92.6522 30.369 92.8294 30.3027 93.0264 30.2168C93.2233 30.1309 93.4328 30.0288 93.6548 29.9106C93.8804 29.7889 94.1077 29.6564 94.3369 29.5132C94.849 29.1945 95.293 28.8687 95.6689 28.5356C95.8659 28.353 96.1165 28.208 96.4209 28.1006C96.5212 28.0684 96.6089 28.0522 96.6841 28.0522ZM90.7598 29.5615L91.0552 29.4111C91.1519 29.361 91.2378 29.3145 91.313 29.2715C92.0363 28.8561 92.4481 28.6001 92.5483 28.5034C92.6486 28.4067 92.6987 28.3405 92.6987 28.3047C92.6987 28.2653 92.688 28.2205 92.6665 28.1704C92.645 28.1203 92.6164 28.0755 92.5806 28.0361C92.4946 27.9359 92.4033 27.8857 92.3066 27.8857C92.21 27.8857 92.1025 27.9036 91.9844 27.9395C91.8698 27.9753 91.7534 28.0254 91.6353 28.0898C91.5171 28.1507 91.4025 28.2259 91.2915 28.3154C91.1841 28.4014 91.0892 28.4945 91.0068 28.5947C90.8171 28.8203 90.7222 29.0155 90.7222 29.1802C90.7222 29.3449 90.7347 29.472 90.7598 29.5615ZM101.996 28.208C102.225 28.208 102.34 28.3029 102.34 28.4927C102.34 28.7254 102.2 29.0029 101.921 29.3252C101.459 29.8623 100.915 30.3851 100.288 30.8936C99.2676 31.71 98.3563 32.1182 97.5542 32.1182C96.9777 32.1182 96.505 31.8675 96.1362 31.3662C95.7531 30.8434 95.5615 30.1416 95.5615 29.2607C95.5615 28.1042 96.1255 26.8258 97.2534 25.4258C97.9696 24.5342 98.6445 23.929 99.2783 23.6104C99.4753 23.5101 99.6257 23.46 99.7295 23.46C99.8369 23.46 99.9336 23.4779 100.02 23.5137C100.109 23.5459 100.191 23.5924 100.267 23.6533C100.442 23.8001 100.53 23.9774 100.53 24.1851C100.53 24.3927 100.472 24.6398 100.358 24.9263C100.243 25.2091 100.077 25.5117 99.8584 25.834C99.3965 26.5179 98.7716 27.1732 97.9839 27.7998C97.7798 28.1901 97.6777 28.6592 97.6777 29.207C97.6777 29.4541 97.7565 29.6868 97.9141 29.9053C98.0752 30.1237 98.2524 30.2329 98.4458 30.2329C98.7108 30.2329 99.2174 29.959 99.9658 29.4111L100.922 28.6753C101.312 28.3638 101.67 28.208 101.996 28.208Z" fill="#489BDF"/>
<path opacity="0.5" d="M13.3334 28V15C13.3334 13.7071 12.912 12.4671 12.1618 11.5529C11.4117 10.6386 10.3943 10.125 9.33341 10.125C9.1566 10.125 8.98703 10.2106 8.86201 10.363C8.73699 10.5153 8.66675 10.722 8.66675 10.9375V32.0625C8.66675 32.278 8.73699 32.4847 8.86201 32.637C8.98703 32.7894 9.1566 32.875 9.33341 32.875C10.3943 32.875 11.4117 32.3614 12.1618 31.4471C12.912 30.5329 13.3334 29.2929 13.3334 28ZM30.6667 15V28C30.6667 29.2929 31.0882 30.5329 31.8383 31.4471C32.5885 32.3614 33.6059 32.875 34.6667 32.875C34.8436 32.875 35.0131 32.7894 35.1382 32.637C35.2632 32.4847 35.3334 32.278 35.3334 32.0625V10.9375C35.3334 10.722 35.2632 10.5153 35.1382 10.363C35.0131 10.2106 34.8436 10.125 34.6667 10.125C33.6059 10.125 32.5885 10.6386 31.8383 11.5529C31.0882 12.4671 30.6667 13.7071 30.6667 15Z" fill="#489BDF"/>
<path d="M21.3333 32.875C18.8187 32.875 17.5627 32.875 16.7813 31.9227C16 30.9705 16 29.4398 16 26.375V16.625C16 13.5602 16 12.0295 16.7813 11.0772C17.5627 10.125 18.8187 10.125 21.3333 10.125H22.6667C25.1813 10.125 26.4373 10.125 27.2187 11.0772C28 12.0295 28 13.5602 28 16.625V26.375C28 29.4398 28 30.9705 27.2187 31.9227C26.4373 32.875 25.1813 32.875 22.6667 32.875H21.3333Z" fill="#489BDF"/>
</g>
<defs>
<clipPath id="clip0_65_2">
<rect width="126" height="38" rx="10" fill="white"/>
</clipPath>
</defs>
</svg>
