<svg width="126" height="38" viewBox="0 0 126 38" fill="none" xmlns="http://www.w3.org/2000/svg">
<path d="M7.02339 12.9426C7.0204 12.3904 7.46569 11.9412 8.01798 11.9395L11.9762 11.927C12.5285 11.9253 12.9786 12.3716 12.9816 12.9238L13.0608 27.5804C13.0638 28.1327 12.6185 28.5818 12.0662 28.5835L8.108 28.596C7.55571 28.5978 7.10558 28.1515 7.1026 27.5992L7.02339 12.9426ZM14.5684 30.907C14.5713 31.4593 15.0215 31.9056 15.5738 31.9038L28.4693 31.8631C29.0216 31.8613 29.4669 31.4122 29.4639 30.8599L29.3487 9.54079C29.3457 8.98851 28.8955 8.54222 28.3433 8.54396L15.4477 8.58468C14.8954 8.58642 14.4502 9.03555 14.4531 9.58782L14.5684 30.907ZM30.8562 12.8674C30.8532 12.3151 31.2985 11.866 31.8508 11.8642L35.809 11.8517C36.3613 11.85 36.8114 12.2963 36.8144 12.8486L36.8936 27.5051C36.8966 28.0574 36.4513 28.5065 35.899 28.5083L31.9408 28.5208C31.3885 28.5225 30.9384 28.0762 30.9354 27.5239L30.8562 12.8674Z" fill="#489BDF"/>
<path d="M49.108 17.484C49.852 17.652 50.44 18.024 50.872 18.6C51.316 19.164 51.538 19.812 51.538 20.544C51.538 21.624 51.166 22.47 50.422 23.082C49.678 23.694 48.634 24 47.29 24H41.008V11.31H47.092C48.388 11.31 49.402 11.598 50.134 12.174C50.878 12.75 51.25 13.56 51.25 14.604C51.25 15.348 51.052 15.972 50.656 16.476C50.272 16.968 49.756 17.304 49.108 17.484ZM44.536 16.35H46.318C47.206 16.35 47.65 15.984 47.65 15.252C47.65 14.496 47.206 14.118 46.318 14.118H44.536V16.35ZM46.588 21.156C47.476 21.156 47.92 20.784 47.92 20.04C47.92 19.656 47.8 19.362 47.56 19.158C47.332 18.954 47.002 18.852 46.57 18.852H44.536V21.156H46.588ZM63.4162 13.902V24H59.8702V22.56C59.5702 23.016 59.1562 23.388 58.6282 23.676C58.1002 23.952 57.4942 24.09 56.8102 24.09C55.6342 24.09 54.7042 23.706 54.0202 22.938C53.3482 22.158 53.0122 21.102 53.0122 19.77V13.902H56.5222V19.32C56.5222 19.896 56.6722 20.352 56.9722 20.688C57.2842 21.012 57.6922 21.174 58.1962 21.174C58.7122 21.174 59.1202 21.012 59.4202 20.688C59.7202 20.352 59.8702 19.896 59.8702 19.32V13.902H63.4162ZM67.206 12.966C66.582 12.966 66.078 12.798 65.694 12.462C65.322 12.114 65.136 11.682 65.136 11.166C65.136 10.638 65.322 10.2 65.694 9.852C66.078 9.504 66.582 9.33 67.206 9.33C67.818 9.33 68.31 9.504 68.682 9.852C69.066 10.2 69.258 10.638 69.258 11.166C69.258 11.682 69.066 12.114 68.682 12.462C68.31 12.798 67.818 12.966 67.206 12.966ZM68.952 13.902V24H65.424V13.902H68.952ZM74.4891 10.68V24H70.9611V10.68H74.4891ZM75.9222 18.942C75.9222 17.898 76.1082 16.986 76.4802 16.206C76.8642 15.426 77.3862 14.826 78.0462 14.406C78.7062 13.986 79.4382 13.776 80.2422 13.776C80.8902 13.776 81.4662 13.914 81.9702 14.19C82.4862 14.454 82.8882 14.82 83.1762 15.288V10.68H86.7222V24H83.1762V22.596C82.9002 23.064 82.5102 23.436 82.0062 23.712C81.5022 23.988 80.9082 24.126 80.2242 24.126C79.4202 24.126 78.6882 23.916 78.0282 23.496C77.3802 23.076 76.8642 22.476 76.4802 21.696C76.1082 20.904 75.9222 19.986 75.9222 18.942ZM83.1942 18.942C83.1942 18.294 83.0142 17.784 82.6542 17.412C82.3062 17.04 81.8742 16.854 81.3582 16.854C80.8302 16.854 80.3922 17.04 80.0442 17.412C79.6962 17.772 79.5222 18.282 79.5222 18.942C79.5222 19.59 79.6962 20.106 80.0442 20.49C80.3922 20.862 80.8302 21.048 81.3582 21.048C81.8742 21.048 82.3062 20.862 82.6542 20.49C83.0142 20.118 83.1942 19.602 83.1942 18.942Z" fill="#33475B"/>
<path d="M100.057 32.056C99.8143 32.056 99.6183 31.9907 99.469 31.86C99.3243 31.7247 99.252 31.5543 99.252 31.349C99.252 31.1437 99.3243 30.9733 99.469 30.838C99.6183 30.7027 99.8143 30.635 100.057 30.635C100.295 30.635 100.486 30.7027 100.631 30.838C100.78 30.9733 100.855 31.1437 100.855 31.349C100.855 31.5497 100.78 31.7177 100.631 31.853C100.486 31.9883 100.295 32.056 100.057 32.056ZM101.273 30.033C101.273 29.627 101.357 29.2723 101.525 28.969C101.693 28.6657 101.927 28.4323 102.225 28.269C102.529 28.1057 102.874 28.024 103.261 28.024C103.761 28.024 104.181 28.1617 104.521 28.437C104.862 28.7077 105.081 29.088 105.179 29.578H103.723C103.639 29.3213 103.476 29.193 103.233 29.193C103.061 29.193 102.923 29.2653 102.82 29.41C102.722 29.55 102.673 29.7577 102.673 30.033C102.673 30.3083 102.722 30.5183 102.82 30.663C102.923 30.8077 103.061 30.88 103.233 30.88C103.481 30.88 103.644 30.7517 103.723 30.495H105.179C105.081 30.9803 104.862 31.3607 104.521 31.636C104.181 31.9113 103.761 32.049 103.261 32.049C102.874 32.049 102.529 31.9673 102.225 31.804C101.927 31.6407 101.693 31.4073 101.525 31.104C101.357 30.8007 101.273 30.4437 101.273 30.033ZM107.576 32.049C107.184 32.049 106.832 31.9673 106.519 31.804C106.211 31.6407 105.969 31.4073 105.791 31.104C105.614 30.8007 105.525 30.4437 105.525 30.033C105.525 29.627 105.614 29.2723 105.791 28.969C105.973 28.6657 106.218 28.4323 106.526 28.269C106.839 28.1057 107.191 28.024 107.583 28.024C107.975 28.024 108.325 28.1057 108.633 28.269C108.946 28.4323 109.191 28.6657 109.368 28.969C109.55 29.2723 109.641 29.627 109.641 30.033C109.641 30.439 109.55 30.796 109.368 31.104C109.191 31.4073 108.946 31.6407 108.633 31.804C108.321 31.9673 107.968 32.049 107.576 32.049ZM107.576 30.859C107.768 30.859 107.926 30.789 108.052 30.649C108.183 30.5043 108.248 30.299 108.248 30.033C108.248 29.767 108.183 29.564 108.052 29.424C107.926 29.284 107.77 29.214 107.583 29.214C107.397 29.214 107.24 29.284 107.114 29.424C106.988 29.564 106.925 29.767 106.925 30.033C106.925 30.3037 106.986 30.509 107.107 30.649C107.229 30.789 107.385 30.859 107.576 30.859ZM115.331 28.038C115.825 28.038 116.213 28.1873 116.493 28.486C116.777 28.7847 116.92 29.193 116.92 29.711V32H115.548V29.893C115.548 29.683 115.489 29.5197 115.373 29.403C115.256 29.2863 115.097 29.228 114.897 29.228C114.696 29.228 114.537 29.2863 114.421 29.403C114.304 29.5197 114.246 29.683 114.246 29.893V32H112.874V29.893C112.874 29.683 112.815 29.5197 112.699 29.403C112.587 29.2863 112.43 29.228 112.23 29.228C112.024 29.228 111.863 29.2863 111.747 29.403C111.63 29.5197 111.572 29.683 111.572 29.893V32H110.2V28.073H111.572V28.591C111.693 28.423 111.849 28.29 112.041 28.192C112.237 28.0893 112.461 28.038 112.713 28.038C113.002 28.038 113.259 28.101 113.483 28.227C113.711 28.353 113.891 28.5303 114.022 28.759C114.162 28.5443 114.346 28.3717 114.575 28.241C114.803 28.1057 115.055 28.038 115.331 28.038Z" fill="#33475B"/>
<path d="M42.8896 29.4756C42.8896 30.0736 43.4858 30.3726 44.6782 30.3726C45.4839 30.3726 46.4954 30.0682 47.7129 29.4595L48.2607 29.1694C49.0915 28.7469 49.5605 28.6556 49.668 28.8955C49.6966 28.96 49.7109 29.0352 49.7109 29.1211C49.7109 29.2035 49.6751 29.2894 49.6035 29.3789C49.5355 29.4648 49.4424 29.5615 49.3242 29.6689C49.2061 29.7728 49.0682 29.8838 48.9106 30.002C48.7531 30.1165 48.5866 30.2311 48.4111 30.3457L47.8848 30.6733C47.7057 30.7808 47.5124 30.8864 47.3047 30.9902L46.5205 31.377C45.2923 31.9499 44.134 32.2363 43.0454 32.2363C42.0929 32.2363 41.3607 32.0483 40.8486 31.6724C40.3903 31.3394 40.1611 30.9097 40.1611 30.3833C40.1611 29.6564 40.4888 28.9242 41.144 28.1865C41.7098 27.5527 42.485 26.9512 43.4697 26.3818C44.3291 25.8841 45.2458 25.4759 46.2197 25.1572C47.14 24.8529 47.8866 24.7007 48.4595 24.7007C48.5812 24.7007 48.6833 24.7401 48.7656 24.8188C48.916 24.9585 48.9912 25.0964 48.9912 25.2324C48.9912 25.7624 48.771 26.1903 48.3306 26.5161C47.9546 26.7918 47.516 26.9297 47.0146 26.9297C46.5133 26.9297 46.1374 26.8796 45.8867 26.7793C44.9521 27.141 44.193 27.6261 43.6094 28.2349C43.3659 28.4891 43.1851 28.7272 43.0669 28.9492C42.9487 29.1712 42.8896 29.3467 42.8896 29.4756ZM58.1382 27.9663C58.2528 27.9663 58.3101 28.063 58.3101 28.2563C58.3101 28.5894 58.0773 29.0208 57.6118 29.5508L57.3057 29.8623C56.3783 30.7897 55.5046 31.4074 54.6846 31.7153C54.1761 31.9051 53.8109 31.8962 53.5889 31.6885C53.4062 31.513 53.2612 31.2301 53.1538 30.8398L53.0249 30.3726L51.8809 31.0762L51.2202 31.4521C50.4325 31.8818 49.8416 32.0967 49.4478 32.0967C48.9429 32.0967 48.5221 31.9015 48.1855 31.5112C47.8633 31.1424 47.7021 30.7145 47.7021 30.2275C47.7021 29.7477 47.8937 29.3198 48.2769 28.9438C48.8247 28.4067 49.6895 27.9144 50.8711 27.4668C51.9883 27.0479 52.8906 26.8384 53.5781 26.8384C53.8109 26.8384 53.9272 26.953 53.9272 27.1821C53.9272 27.3397 53.8968 27.4578 53.8359 27.5366C53.7751 27.6154 53.6497 27.696 53.46 27.7783L52.7832 28.0684C51.7806 28.4873 51.0465 28.9224 50.5811 29.3735C50.4486 29.4989 50.3823 29.6206 50.3823 29.7388C50.3823 29.8569 50.4772 29.916 50.667 29.916C50.8532 29.916 51.2865 29.7155 51.9668 29.3145L52.4126 29.0513C53.1037 28.6359 53.682 28.4282 54.1475 28.4282C54.5413 28.4282 54.8027 28.6019 54.9316 28.9492C54.9639 29.0423 54.9943 29.1372 55.0229 29.2339C55.0516 29.327 55.0802 29.4111 55.1089 29.4863C55.1733 29.6618 55.2306 29.7495 55.2808 29.7495C55.3345 29.7495 55.4097 29.7244 55.5063 29.6743C55.603 29.6206 55.7087 29.5544 55.8232 29.4756C55.9414 29.3932 56.0632 29.3037 56.1885 29.207L56.8384 28.686C57.4149 28.2062 57.8481 27.9663 58.1382 27.9663ZM56.7363 30.2275C56.6683 30.2275 56.6021 30.2114 56.5376 30.1792C56.4696 30.147 56.4069 30.0951 56.3496 30.0234C56.2243 29.8659 56.1616 29.651 56.1616 29.3789C56.1616 29.0889 56.3353 28.7272 56.6826 28.2939C57.0192 27.875 57.4113 27.5133 57.8589 27.209C58.3387 26.8796 58.7505 26.7148 59.0942 26.7148C59.3986 26.7148 59.6045 26.8008 59.7119 26.9727L59.7871 27.0908C59.8444 27.1803 59.9017 27.2251 59.959 27.2251C60.0163 27.2251 60.1058 27.2197 60.2275 27.209L60.9902 27.1553C61.1084 27.1445 61.2015 27.1392 61.2695 27.1392C61.3376 27.1392 61.4146 27.1642 61.5005 27.2144C61.59 27.2609 61.6688 27.3236 61.7368 27.4023C61.8872 27.5814 61.9624 27.7783 61.9624 27.9932C61.9624 28.2152 61.7171 28.5643 61.2266 29.0405L60.8721 29.395C60.6178 29.6564 60.4907 29.8211 60.4907 29.8892C60.4907 29.9572 60.5229 30.0181 60.5874 30.0718C60.6519 30.1219 60.7217 30.147 60.7969 30.147C60.8721 30.147 60.9562 30.1273 61.0493 30.0879C61.146 30.0449 61.2642 29.984 61.4038 29.9053C61.5435 29.8229 61.7028 29.7244 61.8818 29.6099C62.3724 29.2876 62.7 29.0656 62.8647 28.9438L63.3105 28.627C63.6149 28.4121 63.8315 28.3047 63.9604 28.3047C64.0894 28.3047 64.195 28.3333 64.2773 28.3906C64.3597 28.4443 64.4009 28.5392 64.4009 28.6753C64.4009 28.8114 64.3311 28.994 64.1914 29.2231C64.0518 29.4523 63.8996 29.651 63.7349 29.8193C63.5737 29.9876 63.4162 30.1434 63.2622 30.2866C63.1082 30.4299 62.9256 30.5856 62.7144 30.7539C62.5067 30.9186 62.2757 31.0869 62.0215 31.2588C61.7673 31.4271 61.4987 31.5793 61.2158 31.7153C60.5749 32.0269 59.9858 32.1826 59.4487 32.1826C58.6646 32.1826 58.1865 31.9803 58.0146 31.5757C57.9609 31.4539 57.9341 31.3179 57.9341 31.1675C57.9341 31.0171 57.9627 30.856 58.02 30.6841C58.0773 30.5086 58.1525 30.335 58.2456 30.1631C58.4318 29.8229 58.652 29.5221 58.9062 29.2607C59.1211 29.0352 59.2285 28.9009 59.2285 28.8579C59.2285 28.7899 59.1891 28.7469 59.1104 28.729C59.0352 28.7111 58.9224 28.7021 58.772 28.7021C58.7075 28.7021 58.5697 28.7952 58.3584 28.9814L57.832 29.4648C57.2734 29.9733 56.9082 30.2275 56.7363 30.2275ZM69.1113 28.6914C69.1113 28.8848 69.276 28.9814 69.6055 28.9814C69.849 28.9814 70.1676 28.8633 70.5615 28.627L70.9912 28.3906C71.1237 28.3154 71.2383 28.2778 71.335 28.2778C71.4352 28.2778 71.514 28.3083 71.5713 28.3691C71.6286 28.43 71.6572 28.5142 71.6572 28.6216C71.6572 28.729 71.6214 28.8543 71.5498 28.9976C71.4782 29.1372 71.3797 29.2858 71.2544 29.4434C71.1291 29.5973 70.9823 29.7513 70.814 29.9053C70.6457 30.0557 70.4648 30.1917 70.2715 30.3135C69.8418 30.582 69.4425 30.7163 69.0737 30.7163C68.6834 30.7163 68.3719 30.6501 68.1392 30.5176C68.0675 30.4746 67.9977 30.4299 67.9297 30.3833C67.5465 30.8201 66.9915 31.2212 66.2646 31.5864C65.4912 31.9731 64.8162 32.1665 64.2397 32.1665C63.6346 32.1665 63.1566 31.9284 62.8057 31.4521C62.5228 31.0654 62.3813 30.6733 62.3813 30.2759C62.3813 29.703 62.6875 29.1569 63.2998 28.6377C63.751 28.2581 64.186 27.9699 64.605 27.7729C65.0275 27.576 65.4089 27.4238 65.749 27.3164C66.4688 27.0908 67.1169 26.978 67.6934 26.978C67.9512 26.978 68.1803 27.0282 68.3809 27.1284C68.585 27.2251 68.7354 27.3236 68.832 27.4238C69.0612 27.6494 69.1758 27.9377 69.1758 28.2886C69.1758 28.3924 69.165 28.473 69.1436 28.5303C69.1221 28.5876 69.1113 28.6413 69.1113 28.6914ZM64.7178 29.7065L64.7124 29.7227V29.728C64.7124 29.882 64.7464 29.9823 64.8145 30.0288C64.9792 30.1291 65.1528 30.1559 65.3354 30.1094C65.5181 30.0592 65.6917 29.9984 65.8564 29.9268C66.2646 29.7513 66.6335 29.5293 66.9629 29.2607C66.9056 29.1462 66.877 29.028 66.877 28.9062C66.877 28.6484 66.9897 28.3906 67.2153 28.1328C66.9289 28.1328 66.5422 28.2671 66.0552 28.5356C65.5181 28.8328 65.1152 29.139 64.8467 29.4541C64.7607 29.5615 64.7178 29.6457 64.7178 29.7065ZM77.2808 29.2983C77.2808 29.66 77.4401 29.8408 77.7588 29.8408C78.0775 29.8408 78.6289 29.5347 79.4131 28.9224L79.8857 28.5356C80.1973 28.2778 80.4945 28.1489 80.7773 28.1489C80.8812 28.1489 80.9492 28.1776 80.9814 28.2349C81.0137 28.2886 81.0298 28.3584 81.0298 28.4443C81.0298 28.5267 81.0137 28.6144 80.9814 28.7075C80.9528 28.797 80.9116 28.8919 80.8579 28.9922C80.7397 29.2178 80.6252 29.3932 80.5142 29.5186C80.4032 29.6439 80.2725 29.7746 80.1221 29.9106C79.9753 30.0431 79.7998 30.1935 79.5957 30.3618C79.3916 30.5265 79.166 30.6966 78.9189 30.8721C78.6719 31.0439 78.423 31.2015 78.1724 31.3447C77.6066 31.6742 77.1411 31.8389 76.7759 31.8389C76.339 31.8389 75.9971 31.6849 75.75 31.377C75.5173 31.0905 75.3866 30.7074 75.3579 30.2275C74.7134 30.89 74.0312 31.4002 73.3115 31.7583C72.8711 31.9767 72.4987 32.0859 72.1943 32.0859C71.89 32.0859 71.6232 32.0501 71.394 31.9785C71.1649 31.9033 70.9644 31.7923 70.7925 31.6455C70.4201 31.334 70.2339 30.9007 70.2339 30.3457C70.2339 29.5508 70.5186 28.7845 71.0879 28.0469C71.2669 27.8177 71.4674 27.6172 71.6895 27.4453C72.1693 27.1445 72.6777 26.9941 73.2148 26.9941C73.4512 26.9941 73.6195 27.0675 73.7197 27.2144C73.7591 27.2716 73.7788 27.3468 73.7788 27.4399C73.7788 27.5295 73.752 27.6351 73.6982 27.7568C73.6481 27.875 73.5854 28.0003 73.5103 28.1328C73.4351 28.2617 73.3509 28.396 73.2578 28.5356C73.1683 28.6753 73.0859 28.8114 73.0107 28.9438C72.8317 29.259 72.7422 29.4863 72.7422 29.626C72.7422 29.762 72.7816 29.8623 72.8604 29.9268C72.9391 29.9912 73.0358 30.0234 73.1504 30.0234C73.4046 30.0234 73.6213 29.9626 73.8003 29.8408C73.9793 29.7155 74.1566 29.5723 74.332 29.4111L74.8369 28.917L75.3257 28.4121C75.673 28.0576 75.9362 27.8374 76.1152 27.7515C76.2979 27.6619 76.4303 27.6279 76.5127 27.6494C76.5951 27.6709 76.6792 27.7103 76.7651 27.7676C76.8511 27.8213 76.9352 27.8875 77.0176 27.9663C77.2109 28.1525 77.3184 28.3208 77.3398 28.4712C77.347 28.5679 77.3381 28.7129 77.313 28.9062C77.2915 29.096 77.2808 29.2267 77.2808 29.2983ZM83.2695 26.7686C83.3053 26.8402 83.3232 26.9351 83.3232 27.0532C83.3232 27.1678 83.2642 27.2985 83.146 27.4453C83.2391 27.542 83.3573 27.6548 83.5005 27.7837C83.6473 27.909 83.7887 28.0469 83.9248 28.1973C84.2542 28.5661 84.4189 28.9188 84.4189 29.2554C84.4189 29.4774 84.2668 29.7477 83.9624 30.0664C83.8693 30.1667 83.7673 30.2598 83.6562 30.3457C84.0286 30.2025 84.4762 29.9178 84.999 29.4917L85.6274 28.9761C85.9927 28.6717 86.2362 28.4963 86.3579 28.4497C86.4832 28.4032 86.596 28.3799 86.6963 28.3799C86.7965 28.3799 86.8932 28.4049 86.9863 28.4551C87.083 28.5052 87.1313 28.5876 87.1313 28.7021C87.1313 28.8132 87.1134 28.9224 87.0776 29.0298C87.0418 29.1336 86.9989 29.2303 86.9487 29.3198C86.8771 29.4487 86.7733 29.5812 86.6372 29.7173C86.2612 30.0718 85.896 30.3976 85.5415 30.6948C85.1906 30.9884 84.8271 31.2409 84.4512 31.4521C83.6562 31.8962 82.7754 32.1182 81.8086 32.1182C81.2679 32.1182 80.7988 31.9803 80.4014 31.7046C80.2367 31.59 80.1095 31.4718 80.02 31.3501C79.9341 31.2248 79.8911 31.1281 79.8911 31.0601C79.8911 30.9884 79.9144 30.915 79.9609 30.8398C80.0075 30.7611 80.0701 30.6805 80.1489 30.5981C80.2277 30.5158 80.3172 30.4334 80.4175 30.3511C80.5213 30.2687 80.627 30.1953 80.7344 30.1309C80.985 29.984 81.1712 29.9106 81.293 29.9106C81.4183 29.9106 81.5132 29.9268 81.5776 29.959C81.6421 29.9876 81.7012 30.0199 81.7549 30.0557C81.9017 30.1559 82.0055 30.2061 82.0664 30.2061C82.2132 30.2061 82.2866 30.1058 82.2866 29.9053C82.2866 29.7191 82.1882 29.4953 81.9912 29.2339C81.9124 29.1265 81.8301 29.0208 81.7441 28.917C81.6582 28.8132 81.5866 28.7111 81.5293 28.6108C81.4147 28.7433 81.2715 28.8794 81.0996 29.019L80.5786 29.4595C80.217 29.771 79.8822 29.9196 79.5742 29.9053C79.3952 29.891 79.3057 29.6922 79.3057 29.3091C79.3057 29.241 79.311 29.1748 79.3218 29.1104C79.3397 28.9993 79.4489 28.8651 79.6494 28.7075C79.8499 28.55 79.995 28.4425 80.0845 28.3853C80.1776 28.3244 80.2563 28.2707 80.3208 28.2241L80.8901 27.8374C80.8901 27.4722 81.1014 27.1374 81.5239 26.833C81.925 26.5465 82.3224 26.4033 82.7163 26.4033C82.967 26.4033 83.1514 26.5251 83.2695 26.7686ZM93.6841 28.0522C93.856 28.0522 93.9419 28.1489 93.9419 28.3423C93.9419 28.4712 93.8971 28.6341 93.8076 28.8311C93.7217 29.0244 93.5964 29.207 93.4316 29.3789C93.2669 29.5472 93.0771 29.7227 92.8623 29.9053C92.651 30.0879 92.4022 30.2795 92.1157 30.48C91.8328 30.6805 91.5195 30.8792 91.1758 31.0762C90.832 31.2731 90.4668 31.4504 90.0801 31.6079C89.2243 31.9588 88.3953 32.1343 87.5933 32.1343C86.981 32.1343 86.4456 31.9749 85.9873 31.6562C85.5075 31.3232 85.2676 30.9186 85.2676 30.4424C85.2676 29.694 85.6704 28.9832 86.4761 28.3101C87.1707 27.73 87.9889 27.2806 88.9307 26.9619C89.5036 26.7686 89.9888 26.6719 90.3862 26.6719C90.7085 26.6719 90.9806 26.7507 91.2026 26.9082C91.439 27.0801 91.5571 27.311 91.5571 27.6011C91.5571 28.0558 91.1973 28.5589 90.4775 29.1104C90.363 29.1999 90.2591 29.2751 90.166 29.3359L89.9727 29.4648C89.6146 29.7155 89.0703 29.9966 88.3398 30.3081C88.5654 30.4263 88.7749 30.4854 88.9683 30.4854C89.1652 30.4854 89.3407 30.4621 89.4946 30.4155C89.6522 30.369 89.8294 30.3027 90.0264 30.2168C90.2233 30.1309 90.4328 30.0288 90.6548 29.9106C90.8804 29.7889 91.1077 29.6564 91.3369 29.5132C91.849 29.1945 92.293 28.8687 92.6689 28.5356C92.8659 28.353 93.1165 28.208 93.4209 28.1006C93.5212 28.0684 93.6089 28.0522 93.6841 28.0522ZM87.7598 29.5615L88.0552 29.4111C88.1519 29.361 88.2378 29.3145 88.313 29.2715C89.0363 28.8561 89.4481 28.6001 89.5483 28.5034C89.6486 28.4067 89.6987 28.3405 89.6987 28.3047C89.6987 28.2653 89.688 28.2205 89.6665 28.1704C89.645 28.1203 89.6164 28.0755 89.5806 28.0361C89.4946 27.9359 89.4033 27.8857 89.3066 27.8857C89.21 27.8857 89.1025 27.9036 88.9844 27.9395C88.8698 27.9753 88.7534 28.0254 88.6353 28.0898C88.5171 28.1507 88.4025 28.2259 88.2915 28.3154C88.1841 28.4014 88.0892 28.4945 88.0068 28.5947C87.8171 28.8203 87.7222 29.0155 87.7222 29.1802C87.7222 29.3449 87.7347 29.472 87.7598 29.5615ZM98.9961 28.208C99.2253 28.208 99.3398 28.3029 99.3398 28.4927C99.3398 28.7254 99.2002 29.0029 98.9209 29.3252C98.459 29.8623 97.9147 30.3851 97.2881 30.8936C96.2676 31.71 95.3563 32.1182 94.5542 32.1182C93.9777 32.1182 93.505 31.8675 93.1362 31.3662C92.7531 30.8434 92.5615 30.1416 92.5615 29.2607C92.5615 28.1042 93.1255 26.8258 94.2534 25.4258C94.9696 24.5342 95.6445 23.929 96.2783 23.6104C96.4753 23.5101 96.6257 23.46 96.7295 23.46C96.8369 23.46 96.9336 23.4779 97.0195 23.5137C97.109 23.5459 97.1914 23.5924 97.2666 23.6533C97.4421 23.8001 97.5298 23.9774 97.5298 24.1851C97.5298 24.3927 97.4725 24.6398 97.3579 24.9263C97.2433 25.2091 97.0768 25.5117 96.8584 25.834C96.3965 26.5179 95.7716 27.1732 94.9839 27.7998C94.7798 28.1901 94.6777 28.6592 94.6777 29.207C94.6777 29.4541 94.7565 29.6868 94.9141 29.9053C95.0752 30.1237 95.2524 30.2329 95.4458 30.2329C95.7108 30.2329 96.2174 29.959 96.9658 29.4111L97.9219 28.6753C98.3122 28.3638 98.6702 28.208 98.9961 28.208Z" fill="#489BDF"/>
</svg>
