<svg width="162" height="38" viewBox="0 0 162 38" fill="none" xmlns="http://www.w3.org/2000/svg">
<path d="M31.56 16.214H36.67C37.622 16.214 38.3827 16.452 38.952 16.928C39.5307 17.3947 39.82 18.0667 39.82 18.944C39.82 19.336 39.7313 19.7047 39.554 20.05C39.386 20.3953 39.1387 20.6753 38.812 20.89C39.2693 21.0953 39.6007 21.366 39.806 21.702C40.0207 22.038 40.128 22.4767 40.128 23.018C40.128 23.6247 39.9833 24.1567 39.694 24.614C39.4047 25.062 39.0127 25.4073 38.518 25.65C38.0327 25.8833 37.4913 26 36.894 26H31.56V16.214ZM35.914 20.008C36.2313 20.008 36.4693 19.938 36.628 19.798C36.796 19.658 36.88 19.434 36.88 19.126C36.88 18.8087 36.8007 18.5893 36.642 18.468C36.4833 18.3373 36.236 18.272 35.9 18.272H34.458V20.008H35.914ZM36.082 23.942C36.4647 23.942 36.7447 23.872 36.922 23.732C37.0993 23.592 37.188 23.3493 37.188 23.004C37.188 22.668 37.0947 22.4207 36.908 22.262C36.7307 22.1033 36.446 22.024 36.054 22.024H34.458V23.942H36.082ZM43.6963 26.21C42.7629 26.21 42.0629 25.9487 41.5963 25.426C41.1296 24.9033 40.8963 24.2127 40.8963 23.354V19.28H43.6963V23.018C43.6963 23.6993 43.9949 24.04 44.5923 24.04C44.8629 24.04 45.1056 23.9747 45.3203 23.844C45.5349 23.7133 45.7076 23.5267 45.8383 23.284V19.28H48.6523V26H45.9363V25.356C45.6563 25.636 45.3203 25.8507 44.9283 26C44.5363 26.14 44.1256 26.21 43.6963 26.21ZM51.2409 18.524C50.8209 18.524 50.4709 18.3887 50.1909 18.118C49.9109 17.8473 49.7709 17.502 49.7709 17.082C49.7709 16.6713 49.9109 16.3307 50.1909 16.06C50.4709 15.78 50.8209 15.64 51.2409 15.64C51.6516 15.64 51.9969 15.78 52.2769 16.06C52.5663 16.34 52.7109 16.6807 52.7109 17.082C52.7109 17.4927 52.5663 17.838 52.2769 18.118C51.9969 18.3887 51.6516 18.524 51.2409 18.524ZM49.8409 19.28H52.6409V26H49.8409V19.28ZM53.8315 15.654H56.6315V26H53.8315V15.654ZM61.0453 26.21C60.336 26.21 59.7106 26.0653 59.1693 25.776C58.628 25.4773 58.208 25.062 57.9093 24.53C57.62 23.9887 57.4753 23.3633 57.4753 22.654C57.4753 21.954 57.62 21.3333 57.9093 20.792C58.208 20.2413 58.628 19.8167 59.1693 19.518C59.7106 19.2193 60.336 19.07 61.0453 19.07C61.4746 19.07 61.876 19.1353 62.2493 19.266C62.632 19.3873 62.9493 19.5553 63.2013 19.77V15.654H66.0013V26H63.2993V25.384C63.0193 25.6547 62.6833 25.86 62.2913 26C61.9086 26.14 61.4933 26.21 61.0453 26.21ZM61.8013 24.04C62.1186 24.04 62.3986 23.9653 62.6413 23.816C62.8933 23.6667 63.08 23.4613 63.2013 23.2V22.094C63.08 21.8327 62.8933 21.6273 62.6413 21.478C62.3986 21.3287 62.1186 21.254 61.8013 21.254C61.3626 21.254 61.0126 21.38 60.7513 21.632C60.4993 21.8747 60.3733 22.2153 60.3733 22.654C60.3733 23.0927 60.4993 23.4333 60.7513 23.676C61.0126 23.9187 61.3626 24.04 61.8013 24.04Z" fill="#33475B"/>
<path d="M79.2109 19.123C78.7598 19.123 78.4453 18.9089 78.2676 18.4805C77.6113 18.4805 76.8913 18.64 76.1074 18.959C75.6198 19.1595 75.2917 19.3441 75.123 19.5127C74.9544 19.6813 74.8633 19.8135 74.8496 19.9092C74.8405 20.0049 74.8883 20.0869 74.9932 20.1553C75.098 20.2191 75.2438 20.2806 75.4307 20.3398C75.6221 20.3991 75.8431 20.4583 76.0938 20.5176C77.4062 20.8229 78.238 21.0348 78.5889 21.1533C79.2861 21.3857 79.8079 21.641 80.1543 21.9189C80.4824 22.1969 80.6465 22.5752 80.6465 23.0537C80.6465 23.4502 80.5234 23.7852 80.2773 24.0586C80.0358 24.332 79.7145 24.5758 79.3135 24.79C78.9124 25.0042 78.4635 25.1956 77.9668 25.3643C77.4746 25.5283 76.9528 25.6696 76.4014 25.7881C75.8545 25.9066 75.3145 26.0046 74.7812 26.082C73.7376 26.2279 72.8467 26.3008 72.1084 26.3008C70.764 26.3008 69.7272 26.139 68.998 25.8154C68.7246 25.6924 68.5013 25.3848 68.3281 24.8926C68.1914 24.487 68.123 24.1543 68.123 23.8945C68.123 23.6302 68.1458 23.4844 68.1914 23.457C68.237 23.4297 68.3304 23.4297 68.4717 23.457C68.613 23.4798 68.7975 23.5208 69.0254 23.5801L69.8457 23.7988C71.1172 24.1178 72.4616 24.2773 73.8789 24.2773C74.9225 24.2773 75.8066 24.1839 76.5312 23.9971C76.9596 23.8831 77.1875 23.7555 77.2148 23.6143C77.2331 23.4912 76.8958 23.3385 76.2031 23.1562C75.8887 23.0697 75.5241 22.9785 75.1094 22.8828C73.0996 22.3952 71.8874 22.0807 71.4727 21.9395C71.0579 21.7982 70.7868 21.6729 70.6592 21.5635C70.5361 21.4541 70.4336 21.3333 70.3516 21.2012C70.2012 20.9414 70.126 20.6953 70.126 20.4629C70.126 20.2259 70.1374 20.0436 70.1602 19.916C70.1875 19.7884 70.224 19.6699 70.2695 19.5605C70.3652 19.3372 70.486 19.1846 70.6318 19.1025C71.8031 18.4463 73.5234 17.8698 75.793 17.373C77.8118 16.9264 79.473 16.7031 80.7764 16.7031C81.0407 16.7031 81.2389 16.7487 81.3711 16.8398C81.599 17.0085 81.6992 17.1885 81.6719 17.3799C81.6445 17.5713 81.5853 17.749 81.4941 17.9131C81.4076 18.0726 81.2982 18.2184 81.166 18.3506C81.0339 18.4782 80.8857 18.5921 80.7217 18.6924C80.5622 18.7881 80.3958 18.8678 80.2227 18.9316C79.8763 19.0592 79.5391 19.123 79.2109 19.123ZM89.2188 21.7891C89.2188 22.0352 89.4284 22.1582 89.8477 22.1582C90.1576 22.1582 90.5632 22.0078 91.0645 21.707L91.6113 21.4062C91.7799 21.3105 91.9258 21.2627 92.0488 21.2627C92.1764 21.2627 92.2767 21.3014 92.3496 21.3789C92.4225 21.4564 92.459 21.5635 92.459 21.7002C92.459 21.8369 92.4134 21.9964 92.3223 22.1787C92.2311 22.3564 92.1058 22.5456 91.9463 22.7461C91.7868 22.9421 91.5999 23.138 91.3857 23.334C91.1715 23.5254 90.9414 23.6986 90.6953 23.8535C90.1484 24.1953 89.6403 24.3662 89.1709 24.3662C88.6742 24.3662 88.2777 24.2819 87.9814 24.1133C87.8903 24.0586 87.8014 24.0016 87.7148 23.9424C87.2272 24.4984 86.5208 25.0088 85.5957 25.4736C84.6113 25.9658 83.7523 26.2119 83.0186 26.2119C82.2484 26.2119 81.64 25.9089 81.1934 25.3027C80.8333 24.8105 80.6533 24.3115 80.6533 23.8057C80.6533 23.0765 81.043 22.3815 81.8223 21.7207C82.3965 21.2376 82.9502 20.8708 83.4834 20.6201C84.0212 20.3695 84.5065 20.1758 84.9395 20.0391C85.8555 19.752 86.6803 19.6084 87.4141 19.6084C87.7422 19.6084 88.0339 19.6722 88.2891 19.7998C88.5488 19.9229 88.7402 20.0482 88.8633 20.1758C89.1549 20.4629 89.3008 20.8298 89.3008 21.2764C89.3008 21.4085 89.2871 21.5111 89.2598 21.584C89.2324 21.6569 89.2188 21.7253 89.2188 21.7891ZM83.627 23.0811L83.6201 23.1016V23.1084C83.6201 23.3044 83.6634 23.432 83.75 23.4912C83.9596 23.6188 84.1807 23.653 84.4131 23.5938C84.6455 23.5299 84.8665 23.4525 85.0762 23.3613C85.5957 23.138 86.0651 22.8555 86.4844 22.5137C86.4115 22.3678 86.375 22.2174 86.375 22.0625C86.375 21.7344 86.5186 21.4062 86.8057 21.0781C86.4411 21.0781 85.9489 21.249 85.3291 21.5908C84.6455 21.9691 84.1328 22.3587 83.791 22.7598C83.6816 22.8965 83.627 23.0036 83.627 23.0811ZM100.997 21.5908C100.997 21.805 100.717 22.2197 100.156 22.835C99.582 23.4593 99.0192 23.9674 98.4678 24.3594C97.4014 25.1523 96.2188 25.6947 94.9199 25.9863C94.4277 26.1003 93.9606 26.1572 93.5186 26.1572C93.0811 26.1572 92.7165 26.1185 92.4248 26.041C92.1377 25.9681 91.8779 25.8701 91.6455 25.7471C91.4176 25.6195 91.2194 25.4736 91.0508 25.3096C90.8822 25.1455 90.7409 24.9723 90.627 24.79C90.4036 24.4346 90.292 24.1064 90.292 23.8057C90.292 23.5049 90.3262 23.2406 90.3945 23.0127C90.4583 22.7848 90.5495 22.5684 90.668 22.3633C91.0827 21.6159 91.9167 20.9551 93.1699 20.3809C94.1589 19.9206 95.1022 19.6221 96 19.4854C96.3874 19.4261 96.6631 19.3965 96.8271 19.3965C96.9912 19.3965 97.1279 19.4147 97.2373 19.4512C97.3512 19.4831 97.4492 19.5286 97.5312 19.5879C97.7135 19.7201 97.8047 19.9001 97.8047 20.1279C97.8047 20.3558 97.7454 20.5723 97.627 20.7773C97.5085 20.9779 97.3581 21.1465 97.1758 21.2832C96.8203 21.5475 96.4238 21.6797 95.9863 21.6797C95.3893 21.6797 94.8971 21.6022 94.5098 21.4473C94.2409 21.543 94.013 21.7184 93.8262 21.9736C93.6712 22.1833 93.5938 22.3724 93.5938 22.541C93.5938 22.7051 93.6302 22.8669 93.7031 23.0264C93.7806 23.1813 93.8877 23.3203 94.0244 23.4434C94.3252 23.7077 94.6875 23.8398 95.1113 23.8398C96.0957 23.8398 97.2419 23.318 98.5498 22.2744L99.1719 21.7891C99.8281 21.2878 100.295 21.0371 100.573 21.0371C100.856 21.0371 100.997 21.2217 100.997 21.5908ZM105.345 18.0977C105.213 18.207 105.069 18.2982 104.914 18.3711C104.759 18.4395 104.586 18.4736 104.395 18.4736C104.203 18.4736 104.019 18.4417 103.841 18.3779C103.663 18.3141 103.508 18.2253 103.376 18.1113C103.089 17.8652 102.945 17.5508 102.945 17.168C102.945 16.5801 103.438 16.1426 104.422 15.8555C104.755 15.7552 105.028 15.7051 105.242 15.7051C105.456 15.7051 105.616 15.7301 105.721 15.7803C105.83 15.8258 105.919 15.8874 105.987 15.9648C106.124 16.1198 106.192 16.2793 106.192 16.4434C106.192 16.6029 106.172 16.7487 106.131 16.8809C106.094 17.013 106.04 17.1497 105.967 17.291C105.894 17.4323 105.805 17.5736 105.7 17.7148C105.595 17.8561 105.477 17.9837 105.345 18.0977ZM103.622 25.624C103.276 25.8018 102.938 25.943 102.61 26.0479C102.282 26.1572 101.959 26.2119 101.64 26.2119C101.325 26.2119 100.997 26.1367 100.655 25.9863C100.318 25.8314 100.017 25.6263 99.7529 25.3711C99.165 24.8014 98.8711 24.168 98.8711 23.4707C98.8711 22.8281 99.0625 22.1764 99.4453 21.5156C99.7962 20.9186 100.243 20.4173 100.785 20.0117C101.327 19.6061 101.831 19.4033 102.296 19.4033C102.961 19.4033 103.317 19.5902 103.362 19.9639C103.376 20.0778 103.383 20.21 103.383 20.3604C103.383 20.5107 103.346 20.6839 103.273 20.8799C103.205 21.0713 103.114 21.265 103 21.4609C102.891 21.6523 102.768 21.8415 102.631 22.0283C102.499 22.2106 102.371 22.377 102.248 22.5273C102.011 22.8145 101.822 23.0218 101.681 23.1494C101.681 23.3044 101.797 23.4639 102.029 23.6279C102.248 23.7829 102.433 23.8604 102.583 23.8604C102.738 23.8604 102.918 23.8239 103.123 23.751C103.333 23.6781 103.547 23.5801 103.766 23.457C103.989 23.334 104.215 23.1927 104.442 23.0332C104.675 22.8737 104.903 22.7096 105.126 22.541L106.377 21.5635C106.874 21.2035 107.277 21.0234 107.587 21.0234C107.71 21.0234 107.803 21.069 107.867 21.1602C107.936 21.2467 107.97 21.3493 107.97 21.4678C107.97 21.5863 107.91 21.7503 107.792 21.96C107.674 22.165 107.509 22.3929 107.3 22.6436C107.095 22.8942 106.853 23.1562 106.575 23.4297C106.297 23.7031 105.996 23.972 105.673 24.2363C105.349 24.5007 105.012 24.7536 104.661 24.9951C104.315 25.2321 103.968 25.4417 103.622 25.624ZM118.265 20.8662C118.41 20.8662 118.483 20.9893 118.483 21.2354C118.483 21.6592 118.187 22.2083 117.595 22.8828L117.205 23.2793C116.025 24.4596 114.913 25.2458 113.869 25.6377C113.222 25.8792 112.757 25.8678 112.475 25.6035C112.242 25.3802 112.058 25.0202 111.921 24.5234L111.757 23.9287L110.301 24.8242L109.46 25.3027C108.457 25.8496 107.705 26.123 107.204 26.123C106.562 26.123 106.026 25.8747 105.598 25.3779C105.188 24.9085 104.982 24.3639 104.982 23.7441C104.982 23.1335 105.226 22.5889 105.714 22.1104C106.411 21.4268 107.512 20.8001 109.016 20.2305C110.438 19.6973 111.586 19.4307 112.461 19.4307C112.757 19.4307 112.905 19.5765 112.905 19.8682C112.905 20.0687 112.867 20.2191 112.789 20.3193C112.712 20.4196 112.552 20.5221 112.311 20.627L111.449 20.9961C110.173 21.5293 109.239 22.083 108.646 22.6572C108.478 22.8167 108.394 22.9717 108.394 23.1221C108.394 23.2725 108.514 23.3477 108.756 23.3477C108.993 23.3477 109.544 23.0924 110.41 22.582L110.978 22.2471C111.857 21.7184 112.593 21.4541 113.186 21.4541C113.687 21.4541 114.02 21.6751 114.184 22.1172C114.225 22.2357 114.263 22.3564 114.3 22.4795C114.336 22.598 114.373 22.7051 114.409 22.8008C114.491 23.0241 114.564 23.1357 114.628 23.1357C114.696 23.1357 114.792 23.1038 114.915 23.04C115.038 22.9717 115.173 22.8874 115.318 22.7871C115.469 22.6823 115.624 22.5684 115.783 22.4453L116.61 21.7822C117.344 21.1715 117.896 20.8662 118.265 20.8662ZM124.93 21.1738C125.221 21.1738 125.367 21.2946 125.367 21.5361C125.367 21.8324 125.189 22.1855 124.834 22.5957C124.246 23.2793 123.553 23.9447 122.756 24.5918C121.457 25.6309 120.297 26.1504 119.276 26.1504C118.543 26.1504 117.941 25.8314 117.472 25.1934C116.984 24.528 116.74 23.6348 116.74 22.5137C116.74 21.0417 117.458 19.4147 118.894 17.6328C119.805 16.498 120.664 15.7279 121.471 15.3223C121.721 15.1947 121.913 15.1309 122.045 15.1309C122.182 15.1309 122.305 15.1536 122.414 15.1992C122.528 15.2402 122.633 15.2995 122.729 15.377C122.952 15.5638 123.063 15.7894 123.063 16.0537C123.063 16.318 122.991 16.6325 122.845 16.9971C122.699 17.3571 122.487 17.7422 122.209 18.1523C121.621 19.0228 120.826 19.8568 119.823 20.6543C119.563 21.151 119.434 21.748 119.434 22.4453C119.434 22.7598 119.534 23.056 119.734 23.334C119.939 23.612 120.165 23.751 120.411 23.751C120.748 23.751 121.393 23.4023 122.346 22.7051L123.562 21.7686C124.059 21.3721 124.515 21.1738 124.93 21.1738Z" fill="#3369E7"/>
<path d="M127.63 16.214H131.942C133.081 16.214 133.991 16.5127 134.672 17.11C135.353 17.7073 135.694 18.5427 135.694 19.616C135.694 20.7173 135.353 21.5713 134.672 22.178C134 22.7753 133.09 23.074 131.942 23.074H130.108V26H127.63V16.214ZM131.55 20.988C132.045 20.988 132.432 20.8853 132.712 20.68C133.001 20.4747 133.146 20.12 133.146 19.616C133.146 19.112 133.006 18.7667 132.726 18.58C132.446 18.3933 132.054 18.3 131.55 18.3H130.108V20.988H131.55ZM139.629 26.21C138.798 26.21 138.07 26.0607 137.445 25.762C136.819 25.454 136.334 25.034 135.989 24.502C135.653 23.9607 135.485 23.34 135.485 22.64C135.485 21.94 135.653 21.324 135.989 20.792C136.334 20.2507 136.819 19.8307 137.445 19.532C138.07 19.224 138.798 19.07 139.629 19.07C140.459 19.07 141.187 19.224 141.813 19.532C142.438 19.8307 142.919 20.2507 143.255 20.792C143.6 21.324 143.773 21.94 143.773 22.64C143.773 23.34 143.6 23.9607 143.255 24.502C142.919 25.034 142.438 25.454 141.813 25.762C141.187 26.0607 140.459 26.21 139.629 26.21ZM139.629 24.292C140.123 24.292 140.515 24.1473 140.805 23.858C141.103 23.5593 141.253 23.1533 141.253 22.64C141.253 22.1267 141.103 21.7253 140.805 21.436C140.515 21.1373 140.123 20.988 139.629 20.988C139.134 20.988 138.737 21.1373 138.439 21.436C138.149 21.7253 138.005 22.1267 138.005 22.64C138.005 23.1533 138.149 23.5593 138.439 23.858C138.737 24.1473 139.134 24.292 139.629 24.292ZM147.29 26.21C146.748 26.21 146.184 26.154 145.596 26.042C145.008 25.9393 144.541 25.79 144.196 25.594V23.788C144.578 24.012 145.036 24.1987 145.568 24.348C146.109 24.488 146.604 24.558 147.052 24.558C147.378 24.558 147.616 24.5347 147.766 24.488C147.915 24.4413 147.99 24.348 147.99 24.208C147.99 24.096 147.938 24.0073 147.836 23.942C147.742 23.8673 147.565 23.7927 147.304 23.718C147.052 23.634 146.758 23.5453 146.422 23.452C145.852 23.284 145.404 23.1113 145.078 22.934C144.751 22.7567 144.508 22.5327 144.35 22.262C144.191 21.9913 144.112 21.6507 144.112 21.24C144.112 20.512 144.396 19.9707 144.966 19.616C145.544 19.252 146.333 19.07 147.332 19.07C147.817 19.07 148.326 19.1213 148.858 19.224C149.399 19.3267 149.805 19.462 150.076 19.63V21.408C149.796 21.2213 149.422 21.0673 148.956 20.946C148.498 20.8247 148.069 20.764 147.668 20.764C147.35 20.764 147.103 20.7967 146.926 20.862C146.748 20.918 146.66 21.0207 146.66 21.17C146.66 21.31 146.748 21.4173 146.926 21.492C147.103 21.5667 147.42 21.66 147.878 21.772C148.176 21.8467 148.302 21.8793 148.256 21.87C148.853 22.0287 149.315 22.206 149.642 22.402C149.968 22.598 150.197 22.8313 150.328 23.102C150.468 23.3633 150.538 23.6993 150.538 24.11C150.538 24.754 150.258 25.2673 149.698 25.65C149.147 26.0233 148.344 26.21 147.29 26.21ZM154.222 26.21C153.391 26.21 152.761 25.9813 152.332 25.524C151.912 25.0573 151.702 24.4227 151.702 23.62V20.988H150.75V19.28H151.702V17.264H154.166V19.28H155.706V20.988H154.166V23.284C154.166 23.648 154.231 23.9093 154.362 24.068C154.502 24.2267 154.744 24.306 155.09 24.306C155.398 24.306 155.706 24.222 156.014 24.054V25.888C155.771 26 155.51 26.0793 155.23 26.126C154.959 26.182 154.623 26.21 154.222 26.21Z" fill="#33475B"/>
<path opacity="0.4" d="M21.1457 20.6021H18.8853C17.0312 20.6021 15.5208 19.2221 15.5208 17.5066V15.4271C15.5208 15.0341 15.177 14.7083 14.7395 14.7083H11.4374C9.03117 14.7083 7.08325 16.1458 7.08325 18.7141V25.0775C7.08325 27.6458 9.03117 29.0833 11.4374 29.0833H17.5728C19.9791 29.0833 21.927 27.6458 21.927 25.0775V21.3208C21.927 20.9183 21.5728 20.6021 21.1457 20.6021Z" fill="#3369E7"/>
<path d="M23.5622 9.91669H21.5101H20.3747H17.4268C15.0726 9.91669 13.1663 11.2967 13.083 13.7596C13.1455 13.7596 13.1976 13.75 13.2601 13.75H16.208H17.3435H19.3955C21.8018 13.75 23.7497 15.1875 23.7497 17.7559V19.6438V22.2409V24.1288C23.7497 24.1863 23.7393 24.2342 23.7393 24.2821C26.0622 24.215 27.9164 22.7967 27.9164 20.2954V18.4075V15.8104V13.9225C27.9164 11.3542 25.9685 9.91669 23.5622 9.91669Z" fill="#3369E7"/>
<path d="M17.4797 14.8523C17.1568 14.5552 16.6047 14.7565 16.6047 15.1686V17.6794C16.6047 18.7335 17.5735 19.596 18.761 19.596C19.5006 19.6056 20.5318 19.6056 21.4172 19.6056C21.8652 19.6056 22.0943 19.1265 21.7818 18.839C20.6464 17.7944 18.6256 15.9257 17.4797 14.8523Z" fill="#3369E7"/>
</svg>
