<svg width="16" height="14" viewBox="0 0 16 14" fill="none" xmlns="http://www.w3.org/2000/svg">
  <defs>
    <linearGradient id="goldGradient" x1="0%" y1="0%" x2="100%" y2="100%">
      <stop offset="0%" style="stop-color:#FFD700;stop-opacity:1" />
      <stop offset="100%" style="stop-color:#FFA500;stop-opacity:1" />
    </linearGradient>
    <filter id="glow">
      <feGaussianBlur stdDeviation="0.5" result="coloredBlur"/>
      <feMerge>
        <feMergeNode in="coloredBlur"/>
        <feMergeNode in="SourceGraphic"/>
      </feMerge>
    </filter>
  </defs>
  <path fill-rule="evenodd" clip-rule="evenodd" d="M8.427 10.073L9.632 8.86799C9.66956 8.83066 9.69933 8.78624 9.71958 8.73732C9.73984 8.6884 9.75018 8.63594 9.75 8.58299C9.75022 8.47725 9.72947 8.37253 9.68897 8.27486C9.64846 8.1772 9.58899 8.08853 9.514 8.01399L8.427 6.92699C8.37099 6.87081 8.30444 6.82624 8.23116 6.79582C8.15789 6.76541 8.07934 6.74976 8 6.74976C7.92067 6.74976 7.84212 6.76541 7.76884 6.79582C7.69557 6.82624 7.62902 6.87081 7.573 6.92699L6.486 8.01399C6.4109 8.08865 6.35136 8.17748 6.31085 8.27532C6.27034 8.37317 6.24966 8.47808 6.25 8.58399C6.25 8.68999 6.292 8.79199 6.368 8.86799L7.573 10.073C7.68627 10.1862 7.83986 10.2498 8 10.2498C8.16015 10.2498 8.31374 10.1862 8.427 10.073Z" fill="url(#goldGradient)" filter="url(#glow)"/>
  <path fill-rule="evenodd" clip-rule="evenodd" d="M16 4.79601V4.76801C15.9999 4.41838 15.8962 4.07662 15.7019 3.78593C15.5077 3.49525 15.2316 3.26869 14.9085 3.1349C14.5855 3.00111 14.2301 2.9661 13.8872 3.03429C13.5443 3.10248 13.2293 3.27082 12.982 3.51801L12.222 4.27801L12.198 4.30201L11.824 4.67601L11.409 5.09101C11.3675 5.13273 11.3158 5.16279 11.259 5.17817C11.2022 5.19354 11.1423 5.19368 11.0855 5.17857C11.0286 5.16347 10.9767 5.13365 10.935 5.09212C10.8933 5.0506 10.8633 4.99882 10.848 4.94201L10.693 4.37601L10.554 3.86601L10.545 3.83301L9.895 1.44701C9.78177 1.03117 9.53489 0.664124 9.19244 0.402455C8.84999 0.140786 8.43098 -0.000976562 8 -0.000976562C7.56902 -0.000976562 7.15001 0.140786 6.80756 0.402455C6.46511 0.664124 6.21823 1.03117 6.105 1.44701L5.455 3.83301L5.445 3.86501L5.306 4.37601L5.152 4.94201C5.13671 4.99871 5.10679 5.05039 5.06524 5.09188C5.02368 5.13336 4.97195 5.1632 4.91523 5.17839C4.85851 5.19358 4.79879 5.1936 4.74206 5.17844C4.68533 5.16328 4.63358 5.13347 4.592 5.09201L4.176 4.67601L3.802 4.30201L3.778 4.27801L3.018 3.51801C2.77074 3.27082 2.45574 3.10248 2.11283 3.03429C1.76991 2.9661 1.41448 3.00111 1.09146 3.1349C0.768441 3.26869 0.492341 3.49525 0.298067 3.78593C0.103792 4.07662 6.51651e-05 4.41838 0 4.76801L0 4.79601C0 4.93134 0.0153333 5.06568 0.046 5.19901L1.346 10.83C1.39386 11.0385 1.48888 11.2333 1.62374 11.3994C1.75861 11.5654 1.92974 11.6984 2.124 11.788C3.96619 12.6384 5.97101 13.0788 8 13.0788C10.029 13.0788 12.0338 12.6384 13.876 11.788C14.27 11.606 14.557 11.253 14.655 10.83L15.954 5.20001C15.984 5.06668 15.9993 4.93201 16 4.79601ZM3.53 6.15201C4.527 7.14901 6.228 6.69701 6.6 5.33701L7.552 1.84201C7.57856 1.74351 7.63684 1.65651 7.71782 1.59447C7.79881 1.53243 7.89798 1.49881 8 1.49881C8.10202 1.49881 8.20119 1.53243 8.28218 1.59447C8.36316 1.65651 8.42144 1.74351 8.448 1.84201L9.4 5.33701C9.77 6.69701 11.472 7.14901 12.468 6.15201L14.042 4.57801C14.0795 4.54067 14.1273 4.51529 14.1792 4.50506C14.2312 4.49484 14.285 4.50023 14.3339 4.52055C14.3828 4.54088 14.4245 4.57523 14.4539 4.61927C14.4833 4.66331 14.499 4.71507 14.499 4.76801V4.79601C14.4988 4.81824 14.4961 4.84037 14.491 4.86201L13.203 10.446C11.5697 11.1925 9.79483 11.5788 7.999 11.5788C6.20317 11.5788 4.42835 11.1925 2.795 10.446L1.508 4.86201C1.5029 4.84037 1.50021 4.81824 1.5 4.79601V4.76801C1.5 4.71507 1.51568 4.66331 1.54507 4.61927C1.57446 4.57523 1.61623 4.54088 1.66512 4.52055C1.714 4.50023 1.76781 4.49484 1.81976 4.50506C1.87171 4.51529 1.91946 4.54067 1.957 4.57801L3.53 6.15201Z" fill="url(#goldGradient)" filter="url(#glow)"/>
</svg>